<svg version="1.1" id="Layer_1" xmlns="http://www.w3.org/2000/svg" width="80px" height="300px" x="0" y="0" viewBox="0 0 80 300" xml:space="preserve"><style>.st0{fill:#58585b;stroke:#58585b;stroke-width:.2}.st0,.st1{fill-rule:evenodd;clip-rule:evenodd}.st1,.st2{fill:#58585b}.st3{fill:#fff;stroke:#fff;stroke-width:.2}.st3,.st4{fill-rule:evenodd;clip-rule:evenodd}.st4,.st5{fill:#fff}</style><g id="community" transform="translate(2 121)"><path id="Stroke-3" class="st0" d="M22.3 23.2h-9.8c-.2 0-.4-.1-.5-.2-.1-.1-.2-.3-.2-.5v-3.7c0-2.1-1.7-3.7-3.7-3.7H5.2c-2.1 0-3.7 1.7-3.7 3.7v2.4H3v-2.4c0-.4.3-.7.7-.7.4 0 .7.3.7.7v3.1c0 .4-.3.7-.7.7H.8c-.4 0-.7-.3-.7-.7v-3.1c0-2.8 2.3-5.1 5.1-5.1h2.9c2.8 0 5.1 2.3 5.1 5.1v3h8.4v-4.3c0-.4.3-.7.7-.7.4 0 .7.3.7.7v5c0 .2-.1.4-.2.5-.1.1-.3.2-.5.2z"/><path id="Stroke-7" class="st0" d="M22.3 18.2c-.4 0-.7-.3-.7-.7v-2.9c0-.8-.3-1.5-.8-2s-1.3-.8-2-.8h-2.3c-1.6 0-2.8 1.3-2.8 2.9 0 .4-.3.7-.7.7-.4 0-.7-.3-.7-.7 0-2.3 1.9-4.2 4.2-4.2h2.3c2.3 0 4.2 1.9 4.2 4.2v2.9c0 .2-.1.4-.2.5-.1 0-.3.1-.5.1z"/><path id="Stroke-11" class="st0" d="M6.5 5.6c-1.6 0-2.9 1.3-2.9 2.9 0 1.6 1.3 2.9 2.9 2.9s2.9-1.3 2.9-2.9c0-1.6-1.3-2.9-2.9-2.9zm0 7.3c-2.4 0-4.3-1.9-4.3-4.3s1.9-4.3 4.3-4.3 4.3 1.9 4.3 4.3-1.9 4.3-4.3 4.3z"/><path id="Stroke-15" class="st0" d="M23 23.2h-9.8c-.4 0-.7-.3-.7-.7 0-.4.3-.7.7-.7h9.1v-3c0-2.8 2.3-5.1 5.1-5.1h2.9c2.8 0 5.1 2.3 5.1 5.1v3.1c0 .4-.3.7-.7.7h-2.9c-.4 0-.7-.3-.7-.7v-3.1c0-.4.3-.7.7-.7.4 0 .7.3.7.7v2.4H34v-2.4c0-2.1-1.7-3.7-3.7-3.7h-2.9c-2.1 0-3.7 1.7-3.7 3.7v3.7c0 .2-.1.4-.2.5-.2.1-.3.2-.5.2z"/><path id="Stroke-19" class="st0" d="M28.6 5.6c-1.6 0-2.9 1.3-2.9 2.9 0 1.6 1.3 2.9 2.9 2.9 1.6 0 2.9-1.3 2.9-2.9.1-1.6-1.2-2.9-2.9-2.9zm0 7.3c-2.4 0-4.3-1.9-4.3-4.3s1.9-4.3 4.3-4.3S33 6.2 33 8.6s-2 4.3-4.4 4.3z"/><path id="Stroke-23" class="st0" d="M17.4 2.3c-1.6 0-2.9 1.3-2.9 2.9 0 1.6 1.3 2.9 2.9 2.9s2.9-1.3 2.9-2.9c.1-1.6-1.2-2.9-2.9-2.9zm0 7.3c-2.4 0-4.3-1.9-4.3-4.3S15 1 17.4 1s4.3 1.9 4.3 4.3c.1 2.4-1.9 4.3-4.3 4.3z"/></g><g id="download" transform="translate(4 90)"><path id="Fill-25" class="st1" d="M17.2 29.1c-.5 0-.9-.3-.9-.8s.3-.9.8-.9c6.6-.9 11.3-6.8 10.8-13.4C27.5 7.4 22 2.2 15.3 2.2 8.7 2.2 3.2 7.4 2.7 14 2.2 20.6 7 26.5 13.6 27.4c.3 0 .6.2.7.5.1.3.1.6-.1.9-.2.2-.5.4-.8.3-7.6-1-13-7.7-12.4-15.2C1.5 6.3 7.8.5 15.3.5s13.8 5.8 14.4 13.4c.5 7.5-4.9 14.2-12.4 15.3l-.1-.1z"/></g><path class="st1" d="M24.1 104.8c-.1-.3-.3-.5-.6-.6-.3-.1-.6 0-.8.2L20 107v-9.9c0-.5-.4-.9-.9-.9s-.9.4-.9.9v9.7l-2.5-2.4c-.3-.3-.9-.3-1.2 0-.3.3-.3.9 0 1.2l4 4s.1 0 .1.1l.1.1s.1 0 .1.1h.2c.3 0 .6-.2.8-.4l3.8-3.8c.5-.2.5-.6.5-.9z"/><path id="Fill-33" class="st1" d="M24.5 112.5H14.2c-.5 0-.9-.4-.9-.9s.4-.9.9-.9h10.3c.3 0 .6.2.8.4.2.3.2.6 0 .9-.2.3-.5.5-.8.5"/><path id="Fill-39" class="st1" d="M23.8 72l-6 6-2.6-2.6c-.2-.2-.2-.4-.2-.6.1-.2.2-.3.4-.4.2-.1.4 0 .5.1l1.8 1.8 5.2-5.2c.2-.2.6-.2.8 0 .3.3.3.7.1.9"/><g id="career-certifications" transform="translate(5 60)"><path id="Fill-41" class="st1" d="M10.2 22.2c.1 0 .2 0 .4.1.7.4 1.5.6 2.3.8.4.1.7.4.7.8v3.2c0 .4.3.7.7.7h1.5c.4 0 .7-.3.7-.7v-3.6c0-.4.2-.7.5-.8.7-.2 1.4-.6 2-1 .3-.2.8-.2 1.1.1l2.5 2.5c.1.1.3.2.5.2s.4-.1.5-.2l1.1-1.1c.1-.1.2-.3.2-.5s-.1-.4-.2-.5L22 19.5c-.3-.2-.3-.6-.2-.9.3-.6.5-1.3.7-2 .1-.4.4-.7.8-.7H27c.2 0 .4-.1.5-.2.1-.1.2-.3.2-.5v-1.5c0-.4-.3-.7-.7-.7h-3.9c-.4 0-.7-.2-.8-.6-.2-.7-.5-1.3-.9-1.9-.2-.3-.1-.7.1-1l2.6-2.6c.1-.1.2-.3.2-.5s-.1-.4-.2-.5L23 4.8c-.1-.1-.3-.2-.5-.2s-.4.1-.5.2l-2.6 2.6c-.3.3-.7.3-1 .1-.7-.4-1.4-.7-2.1-.9-.4-.1-.6-.4-.6-.8V2.3c0-.4-.3-.7-.7-.7h-1.5c-.4 0-.7.3-.7.7v3.4c0 .4-.3.7-.6.8-.8.2-1.6.5-2.3.9-.3.2-.7.1-1-.1L6.8 5.2c-.2-.1-.4-.2-.6-.2-.1 0-.3.1-.5.2l-1 1.1c-.3.3-.3.7 0 1l2.2 2.2c.3.3.3.7.1 1-.4.8-.7 1.6-.9 2.4-.1.4-.4.7-.8.7H2.4c-.4 0-.7.3-.7.7v1.5c0 .4.3.7.7.7h3.1c.4 0 .7.2.8.6.3.8.6 1.6 1.1 2.3.2.3.2.8-.1 1.1l-2.1 2.1c-.1.2-.2.4-.2.6 0 .2.1.4.2.5l1.1 1.1c.3.3.7.3 1 0l2.3-2.3c.2-.2.4-.3.6-.3m5.7 7.2h-1.5c-1.3 0-2.4-1.1-2.4-2.4v-2.5c-.5-.1-1-.3-1.5-.5l-1.9 1.9c-.9.9-2.4.9-3.4 0L4 24.8c-.4-.4-.7-1-.7-1.7 0-.6.3-1.2.7-1.7l1.6-1.6c-.3-.5-.6-1.1-.8-1.6H2.4c-.6 0-1.2-.2-1.7-.7-.4-.4-.7-1-.7-1.7v-1.5C0 13 1.1 12 2.4 12h2.2c.2-.6.4-1.1.7-1.7L3.5 8.5c-.9-.9-.9-2.4 0-3.4L4.6 4c.4-.4 1-.7 1.7-.7.6 0 1.2.2 1.7.7l1.8 1.8c.5-.3 1-.5 1.5-.7V2.3C11.3 1 12.4 0 13.6 0h1.5c1.3 0 2.4 1 2.4 2.3v2.8c.4.1.9.3 1.3.5l2.1-2.2c.9-.9 2.4-.9 3.3 0l1.1 1.1c.5.5.7 1.1.7 1.8s-.3 1.2-.7 1.7l-2.1 2.1c.2.4.4.7.5 1.1H27c1.3 0 2.4 1.1 2.4 2.4v1.5c0 1.3-1.1 2.4-2.4 2.4h-3c-.1.4-.3.8-.4 1.2l2.3 2.3c.9.9.9 2.4 0 3.3l-1.1 1.1c-.9.9-2.4.9-3.4 0l-2-2-1.2.6v3.1c0 1.3-1 2.3-2.3 2.3"/></g><path id="Fill-43" class="st1" d="M26 12.6H13.7c-.5 0-.9-.4-.9-.9s.4-.9.9-.9H26c.5 0 .9.4.9.9s-.4.9-.9.9"/><path id="Fill-45" class="st1" d="M26 17.1H13.7c-.5 0-.9-.4-.9-.9s.4-.9.9-.9H26c.5 0 .9.4.9.9s-.4.9-.9.9"/><path id="Fill-47" class="st1" d="M20.8 21.6h-7.2c-.5 0-.9-.4-.9-.9s.4-.9.9-.9h7.2c.5 0 .9.4.9.9s-.4.9-.9.9"/><path class="st1" d="M30.6 9.4c-.5 0-.9.4-.9.9V27c0 .3-.2.5-.5.5H10.4c-.3 0-.5-.2-.5-.5V2.2c0-.3.2-.5.5-.5h13.5v3.7c0 1.2 1 2.2 2.2 2.2h4.3c.4 0 .7-.2.8-.6.2-.3.1-.7-.1-1L25.5.2c-.2-.1-.4-.2-.7-.2H10.4C9.2 0 8.2 1 8.2 2.2V27c0 1.2 1 2.2 2.2 2.2h18.8c1.2 0 2.2-1 2.2-2.2V10.2c.1-.4-.3-.8-.8-.8zm-4.9-4V3l2.8 3h-2.4c-.2-.1-.4-.3-.4-.6z"/><g id="chat" transform="translate(2 150)"><path id="Fill-53" class="st1" d="M29.2 28.8c-.2 0-.4-.1-.6-.2l-5.8-5.2H11.6c-.5 0-.8-.4-.8-.9s.4-.9.8-.9h11.6c.2 0 .4.1.6.2l4.6 4.2v-3.5c0-.5.4-.8.8-.8h3.1v-14h-5.8c-.5 0-.8-.4-.8-.8V2.2h-23v14h3.8c.5 0 .8.4.8.8v3.5l4.6-4.2c.1-.1.3-.2.5-.2h13.2V10c0-.5.4-.9.8-.9.5 0 .9.4.9.9v7c0 .5-.4.8-.8.8H12.9L7.1 23c-.2.2-.6.3-.9.2-.3-.1-.5-.4-.5-.8v-4.5H1.8c-.2 0-.5-.1-.6-.3-.2-.1-.3-.3-.2-.6V1.4c0-.5.4-.8.8-.8h24.7c.5 0 .8.4.8.8V6h5.8c.5 0 .9.4.9.9v15.7c0 .5-.4.8-.8.8h-3.1v4.5c0 .2-.1.5-.2.6-.2.2-.4.3-.7.3"/></g><g id="education-2" transform="translate(6 33)"><path id="Shape" class="st2" d="M27.9 10.9h-3v-3c0-.5-.4-.9-.9-.9s-.9.4-.9.9v3h-3c-.5 0-.9.4-.9.9s.4.9.9.9h3v3c0 .5.4.9.9.9s.9-.4.9-.9v-3h3c.5 0 .9-.4.9-.9s-.4-.9-.9-.9z"/><path id="Shape_1_" class="st2" d="M17.7 24.5c-1.5 0-2.8-1-3.1-2.4l-.7-2.1H7.1l-.7 2.1c-.4 1.4-1.7 2.4-3.2 2.4-.9 0-1.7-.3-2.3-.9-.6-.6-1-1.4-1-2.3 0-.4.1-.8.2-1.2L6.3 3.4C7.1 1.1 8.5 0 10.5 0s3.4 1.2 4.2 3.4l6 16.8c.1.4.2.8.2 1.2 0 .8-.3 1.7-.9 2.3-.6.5-1.4.8-2.3.8zM6.5 18.3h8.1c.4 0 .7.2.9.6l.9 2.7c.2.6.8 1.1 1.4 1.1.4 0 .7-.1 1-.4.3-.3.4-.6.4-1 0-.2 0-.4-.1-.6L13.1 4c-.7-2-1.7-2.2-2.5-2.2-.9 0-1.9.2-2.5 2.2L1.9 20.7c-.1.2-.1.4-.1.6 0 .4.2.7.4 1 .3.3.6.4 1 .4.7 0 1.3-.4 1.4-1.1l.9-2.7c.2-.4.6-.6 1-.6zm6.7-2.3H7.8c-.3 0-.6-.1-.7-.4-.2-.2-.2-.5-.1-.8L9.6 7c.1-.4.5-.6.9-.6h.1c.4 0 .7.2.9.6l2.6 7.8c.1.3.1.6-.1.8-.3.2-.6.4-.8.4zM9 14.2h2.8L10.5 10 9 14.2z"/></g><path class="st1" d="M29.2 180.2H11c-1.3 0-2.3 1-2.3 2.3v5.5h-.8c-.5 0-.9.4-.9.9s.4.9.9.9h.8v9.3h-.8c-.5 0-.9.4-.9.9s.4.9.9.9h.8v5.8c0 1.3 1 2.3 2.3 2.3h18.2c1.3 0 2.3-1 2.3-2.3v-24.2c0-1.3-1-2.3-2.3-2.3zm.6 26.5c0 .3-.3.6-.6.6H11c-.3 0-.6-.3-.6-.6v-5.8h.8c.5 0 .9-.4.9-.9s-.4-.9-.9-.9h-.8v-9.3h.8c.5 0 .9-.4.9-.9s-.4-.9-.9-.9h-.8v-5.5c0-.3.3-.6.6-.6h18.2c.3 0 .6.3.6.6v24.2z"/><path class="st1" d="M22 194.2h-2.7c-2.6 0-4.7 2.1-4.7 4.8v3.3c0 .4.3.8.6.8h.1c.4 0 .7-.3.7-.7V199c0-1.9 1.5-3.4 3.4-3.4H22c.9 0 1.7.4 2.4 1 .7.8 1.1 2 1 3.1v2.2h-1.2v-2.2c.1-.4-.2-.7-.5-.8-.4-.1-.7.2-.8.5V202.6c0 .4.3.7.7.7H26c.4 0 .7-.3.7-.7v-2.9c0-3.3-2.1-5.5-4.7-5.5zM20.6 193.6c2.2 0 4.1-1.8 4.1-4.1s-1.8-4.1-4.1-4.1c-2.2 0-4.1 1.8-4.1 4.1.1 2.3 1.9 4.1 4.1 4.1zm0-6.9c1.6 0 2.9 1.3 2.9 2.9s-1.3 2.9-2.9 2.9-2.9-1.3-2.9-2.9 1.3-2.9 2.9-2.9z"/><path class="st2" d="M32.1 231.8l-9.4-8.6c-.2-.2-.5-.3-.8-.2-.3.1-.5.3-.5.6s0 .6.2.8l7.1 6.5c-1.3.3-2.3 1.3-2.7 2.7l-9.5-10.2c-.2-.3-.6-.3-.9-.2-1.5.7-3.2.6-4.6-.3s-2.3-2.3-2.5-3.9l2.5 2.4c.3.3.8.3 1.1 0l4.4-4.4c.3-.3.3-.8 0-1.1l-2.6-2.6c1.2.1 2.4.6 3.2 1.5 1.5 1.5 1.9 3.7 1 5.6-.2.4 0 .9.4 1.1.4.2.9 0 1.1-.4 1.1-2.5.6-5.4-1.4-7.4-1.7-1.7-4.1-2.3-6.4-1.8-.3.1-.5.3-.6.6s0 .6.2.8l3.2 3.2-3.3 3.3-3.1-3.1c-.2-.2-.5-.3-.8-.2s-.4.3-.4.6c-.5 2.2.1 4.6 1.8 6.2 1.8 1.9 4.5 2.5 7 1.6l10.9 11.7.1.1c.7.8 1.7 1.4 2.8 1.4 2 0 3.7-1.6 3.7-3.7-.1-1-.5-1.9-1.2-2.6zm-2.6 4.7c-.6 0-1.2-.3-1.6-.8 0-.1-.1-.1-.1-.2-.2-.3-.3-.7-.3-1.1 0-1.1.9-2 2-2s2 .9 2 2c.1 1.2-.8 2.1-2 2.1z"/><path class="st1" d="M30.6 249.4c-.5 0-.9.4-.9.9V267c0 .3-.2.5-.5.5H10.4c-.3 0-.5-.2-.5-.5v-24.8c0-.3.2-.5.5-.5h14.1l5.4 5.6c.3.3.9.4 1.2 0 .3-.3.4-.9 0-1.2l-5.6-5.8c-.2-.2-.4-.3-.6-.3H10.4c-1.2 0-2.2 1-2.2 2.2V267c0 1.2 1 2.2 2.2 2.2h18.8c1.2 0 2.2-1 2.2-2.2v-16.8c.1-.4-.3-.8-.8-.8z"/><path class="st1" d="M21.6 256.8c.3.3.8.3 1.1 0l3.7-3.4c.2-.1.4-.4.4-.7 0-.2-.1-.4-.2-.5-.1-.1-.2-.2-.3-.2 0-.1-.1-.2-.2-.3l-3.7-3.4c-.2-.2-.5-.3-.8-.2-.3.1-.5.3-.6.5-.1.3 0 .5.2.7l2.8 2.6h-2.3-1.3c-1.9.2-3.8 1.1-5.1 2.5-1.7 1.7-2.6 4.1-2.5 6.5 0 .4.3.7.7.7.2 0 .4-.1.5-.2.1-.2.2-.4.2-.6-.1-2 .6-4 2.1-5.4 1.2-1.2 2.7-1.9 4.4-2H24l-2.4 2.3c-.3.3-.3.8 0 1.1z"/><g id="community_1_" transform="translate(0 121)"><path id="Stroke-3_1_" class="st3" d="M64.3 23.2h-9.8c-.2 0-.4-.1-.5-.2-.1-.1-.2-.3-.2-.5v-3.7c0-2.1-1.7-3.7-3.7-3.7h-2.9c-2.1 0-3.7 1.7-3.7 3.7v2.4H45v-2.4c0-.4.3-.7.7-.7.4 0 .7.3.7.7v3.1c0 .4-.3.7-.7.7h-2.8c-.4 0-.7-.3-.7-.7v-3.1c0-2.8 2.3-5.1 5.1-5.1h2.9c2.8 0 5.1 2.3 5.1 5.1v3h8.4v-4.3c0-.4.3-.7.7-.7.4 0 .7.3.7.7v5c0 .2-.1.4-.2.5-.2.1-.4.2-.6.2z"/><path id="Stroke-7_1_" class="st3" d="M64.3 18.2c-.4 0-.7-.3-.7-.7v-2.9c0-.8-.3-1.5-.8-2s-1.3-.8-2-.8h-2.3c-1.6 0-2.8 1.3-2.8 2.9 0 .4-.3.7-.7.7-.4 0-.7-.3-.7-.7 0-2.3 1.9-4.2 4.2-4.2h2.3c2.3 0 4.2 1.9 4.2 4.2v2.9c0 .2-.1.4-.2.5-.1 0-.3.1-.5.1z"/><path id="Stroke-11_1_" class="st3" d="M48.5 5.6c-1.6 0-2.9 1.3-2.9 2.9 0 1.6 1.3 2.9 2.9 2.9s2.9-1.3 2.9-2.9c0-1.6-1.3-2.9-2.9-2.9zm0 7.3c-2.4 0-4.3-1.9-4.3-4.3s1.9-4.3 4.3-4.3 4.3 1.9 4.3 4.3-1.9 4.3-4.3 4.3z"/><path id="Stroke-15_1_" class="st3" d="M65 23.2h-9.8c-.4 0-.7-.3-.7-.7 0-.4.3-.7.7-.7h9.1v-3c0-2.8 2.3-5.1 5.1-5.1h2.9c2.8 0 5.1 2.3 5.1 5.1v3.1c0 .4-.3.7-.7.7h-2.9c-.4 0-.7-.3-.7-.7v-3.1c0-.4.3-.7.7-.7.4 0 .7.3.7.7v2.4H76v-2.4c0-2.1-1.7-3.7-3.7-3.7h-2.9c-2.1 0-3.7 1.7-3.7 3.7v3.7c0 .2-.1.4-.2.5-.2.1-.3.2-.5.2z"/><path id="Stroke-19_1_" class="st3" d="M70.6 5.6c-1.6 0-2.9 1.3-2.9 2.9 0 1.6 1.3 2.9 2.9 2.9s2.9-1.3 2.9-2.9c.1-1.6-1.2-2.9-2.9-2.9zm0 7.3c-2.4 0-4.3-1.9-4.3-4.3s1.9-4.3 4.3-4.3S75 6.2 75 8.6s-2 4.3-4.4 4.3z"/><path id="Stroke-23_1_" class="st3" d="M59.4 2.3c-1.6 0-2.9 1.3-2.9 2.9 0 1.6 1.3 2.9 2.9 2.9s2.9-1.3 2.9-2.9c.1-1.6-1.2-2.9-2.9-2.9zm0 7.3c-2.4 0-4.3-1.9-4.3-4.3S57 1 59.4 1s4.3 1.9 4.3 4.3c.1 2.4-1.9 4.3-4.3 4.3z"/></g><g id="download_1_" transform="translate(2 90)"><path id="Fill-25_1_" class="st4" d="M59.2 29.1c-.5 0-.9-.3-.9-.8s.3-.9.8-.9c6.6-.9 11.3-6.8 10.8-13.4C69.5 7.4 64 2.2 57.3 2.2c-6.6 0-12.2 5.1-12.6 11.8-.5 6.6 4.3 12.5 10.8 13.4.3 0 .6.2.7.5.1.3.1.6-.1.9-.2.2-.5.4-.8.3-7.5-1.1-12.9-7.7-12.4-15.3C43.4 6.3 49.7.4 57.3.4s13.8 5.8 14.4 13.4c.5 7.5-4.9 14.2-12.4 15.3h-.1z"/></g><path class="st4" d="M64.1 104.8c-.1-.3-.3-.5-.6-.6-.3-.1-.6 0-.8.2L60 107v-9.9c0-.5-.4-.9-.9-.9s-.9.4-.9.9v9.7l-2.5-2.4c-.3-.3-.9-.3-1.2 0-.3.3-.3.9 0 1.2l4 4s.1 0 .1.1l.1.1s.1 0 .1.1h.2c.3 0 .6-.2.8-.4l3.8-3.8c.5-.2.5-.6.5-.9z"/><path id="Fill-33_1_" class="st4" d="M64.5 112.5H54.2c-.5 0-.9-.4-.9-.9s.4-.9.9-.9h10.3c.3 0 .6.2.8.4.2.3.2.6 0 .9-.2.3-.5.5-.8.5"/><path id="Fill-39_1_" class="st4" d="M63.6 72.7l-6 6-2.7-2.7c-.1-.1-.2-.3-.1-.5 0-.2.2-.3.4-.4.2-.1.4 0 .5.1l1.8 1.8 5.2-5.2c.2-.2.6-.2.8 0 .3.3.3.7.1.9"/><g id="career-certifications_1_" transform="translate(2 59)"><path id="Fill-41_1_" class="st4" d="M53.2 23.1c.1 0 .2 0 .4.1.7.4 1.5.6 2.3.8.4.1.7.4.7.8V28c0 .4.3.7.7.7h1.5c.4 0 .7-.3.7-.7v-3.6c0-.4.2-.7.5-.8.7-.2 1.4-.6 2-1 .3-.2.8-.2 1.1.1l2.5 2.5c.1.1.3.2.5.2s.4-.1.5-.2l1.1-1.1c.1-.1.2-.3.2-.5s-.1-.4-.2-.5L65 20.3c-.3-.2-.3-.6-.2-.9.3-.6.5-1.3.7-2 .1-.4.4-.7.8-.7H70c.2 0 .4-.1.5-.2.1-.1.2-.3.2-.5v-1.5c0-.4-.3-.7-.7-.7h-3.9c-.4 0-.7-.2-.8-.6-.2-.7-.5-1.3-.9-1.9-.2-.3-.1-.7.1-1l2.6-2.6c.1-.1.2-.3.2-.5s-.1-.4-.2-.5L66 5.6c-.1-.1-.3-.2-.5-.2s-.4.1-.5.2l-2.6 2.6c-.3.3-.7.3-1 .1-.7-.4-1.4-.7-2.1-.9-.4-.1-.6-.4-.6-.8V3.3c0-.4-.3-.7-.7-.7h-1.5c-.4 0-.7.3-.7.7v3.4c0 .4-.3.7-.6.8-.8.2-1.6.5-2.3.9-.3.2-.7.1-1-.1l-2.2-2.2c-.1-.1-.3-.2-.5-.2s-.4.1-.5.2l-1.1 1.1c-.3.3-.3.7 0 1l2.2 2.2c.3.3.3.7.1 1-.4.8-.7 1.6-.9 2.4-.1.4-.4.7-.8.7h-2.9c-.4 0-.7.3-.7.7v1.5c0 .4.3.7.7.7h3.1c.4 0 .7.2.8.6.3.8.6 1.6 1.1 2.3.2.3.2.8-.1 1l-2.1 2.1c-.1.3-.1.5-.1.7 0 .2.1.4.2.5l1 1.1c.3.3.7.3 1 0l2.3-2.3c.3-.2.5-.3.7-.3m5.6 7.3h-1.5c-1.3 0-2.4-1.1-2.4-2.4v-2.6c-.5-.1-1-.3-1.5-.5l-1.9 1.9c-.9.9-2.4.9-3.4 0l-1.1-1c-.4-.4-.7-1-.7-1.7 0-.6.3-1.2.7-1.7l1.6-1.6c-.3-.5-.6-1.1-.8-1.6h-2.5c-.6 0-1.2-.2-1.7-.7-.4-.4-.7-1-.7-1.7v-1.5c0-1.3 1.1-2.4 2.4-2.4h2.2c.2-.6.4-1.1.7-1.7l-1.8-1.8c-.9-.9-.9-2.4 0-3.4l1.1-1c.4-.4 1-.7 1.7-.7.6 0 1.2.2 1.7.7l1.8 1.8c.5-.3 1-.5 1.5-.7V3.3C54.2 2 55.3 1 56.5 1H58c1.3 0 2.4 1 2.4 2.3v2.8c.4.1.9.3 1.3.5l2.1-2.2c.9-.9 2.4-.9 3.3 0l1.1 1.1c.6.5.8 1.1.8 1.7s-.3 1.2-.7 1.7L66.2 11c.2.4.4.7.5 1.1H70c1.3 0 2.4 1.1 2.4 2.4V16c0 1.3-1.1 2.4-2.4 2.4h-3c-.1.4-.3.8-.4 1.2l2.3 2.3c.9.9.9 2.4 0 3.3l-1.1 1.1c-.9.9-2.4.9-3.4 0l-2-2-1.2.6V28c0 1.3-1.1 2.4-2.4 2.4"/></g><path id="Fill-43_1_" class="st4" d="M66 12.6H53.7c-.5 0-.9-.4-.9-.9s.4-.9.9-.9H66c.5 0 .9.4.9.9s-.4.9-.9.9"/><path id="Fill-45_1_" class="st4" d="M66 17.1H53.7c-.5 0-.9-.4-.9-.9s.4-.9.9-.9H66c.5 0 .9.4.9.9s-.4.9-.9.9"/><path id="Fill-47_1_" class="st4" d="M60.8 21.6h-7.2c-.5 0-.9-.4-.9-.9s.4-.9.9-.9h7.2c.5 0 .9.4.9.9s-.4.9-.9.9"/><path class="st4" d="M70.6 9.4c-.5 0-.9.4-.9.9V27c0 .3-.2.5-.5.5H50.4c-.3 0-.5-.2-.5-.5V2.2c0-.3.2-.5.5-.5h13.5v3.7c0 1.2 1 2.2 2.2 2.2h4.3c.4 0 .7-.2.8-.6.2-.3.1-.7-.1-1L65.5.2c-.2-.1-.4-.2-.7-.2H50.4c-1.2 0-2.2 1-2.2 2.2V27c0 1.2 1 2.2 2.2 2.2h18.8c1.2 0 2.2-1 2.2-2.2V10.2c.1-.4-.3-.8-.8-.8zm-4.9-4V3l2.8 3h-2.4c-.2-.1-.4-.3-.4-.6z"/><g id="chat_1_" transform="translate(0 150)"><path id="Fill-53_1_" class="st4" d="M71.2 28.8c-.2 0-.4-.1-.6-.2l-5.8-5.2H53.6c-.5 0-.8-.4-.8-.9s.4-.9.8-.9h11.6c.2 0 .4.1.6.2l4.6 4.2v-3.5c0-.5.4-.8.8-.8h3.1v-14h-5.8c-.5 0-.8-.4-.8-.8V2.2h-23v14h3.8c.5 0 .8.4.8.8v3.5l4.6-4.2c.1-.1.3-.2.5-.2h13.2V10c0-.5.4-.9.8-.9.5 0 .9.4.9.9v7c0 .5-.4.8-.8.8H54.9L49.1 23c-.2.2-.6.3-.9.2-.3-.1-.5-.4-.5-.8v-4.5h-3.8c-.2 0-.5-.1-.6-.3-.3-.1-.4-.3-.3-.6V1.4c0-.5.4-.8.8-.8h24.7c.5 0 .8.4.8.8V6h5.8c.5 0 .9.4.9.9v15.7c0 .5-.4.8-.8.8h-3.1v4.5c0 .2-.1.5-.2.6-.2.2-.4.3-.7.3"/></g><g id="education-2_1_" transform="translate(4 33)"><path id="Shape_6_" class="st5" d="M69.9 10.9h-3v-3c0-.5-.4-.9-.9-.9s-.9.4-.9.9v3h-3c-.5 0-.9.4-.9.9s.4.9.9.9h3v3c0 .5.4.9.9.9s.9-.4.9-.9v-3h3c.5 0 .9-.4.9-.9s-.4-.9-.9-.9z"/><path id="Shape_7_" class="st5" d="M59.7 24.5c-1.5 0-2.8-1-3.1-2.4l-.7-2.1h-6.8l-.7 2.1c-.4 1.4-1.7 2.4-3.2 2.4-.9 0-1.7-.3-2.3-.9-.6-.6-1-1.4-1-2.3 0-.4.1-.8.2-1.2l6.1-16.8c.9-2.2 2.3-3.3 4.3-3.3s3.4 1.2 4.2 3.4l6 16.8c.1.4.2.8.2 1.2 0 .8-.3 1.7-.9 2.3-.6.5-1.4.8-2.3.8zm-11.2-6.2h8.1c.4 0 .7.2.9.6l.9 2.7c.2.6.8 1.1 1.4 1.1.4 0 .7-.1 1-.4.3-.3.4-.6.4-1 0-.2 0-.4-.1-.6L55.1 4c-.7-2-1.7-2.2-2.5-2.2-.9 0-1.8.3-2.5 2.2L44 20.8c-.1.2-.1.4-.1.6 0 .4.2.7.4 1 .3.3.6.4 1 .4.7 0 1.3-.4 1.4-1.1l.9-2.7c.1-.5.5-.7.9-.7zm6.7-2.3h-5.3c-.3 0-.6-.1-.7-.4s-.2-.5-.1-.8L51.6 7c.1-.4.5-.6.9-.6h.1c.4 0 .7.2.9.6l2.6 7.8c.1.3.1.6-.1.8s-.6.4-.8.4zM51 14.2h2.8L52.5 10 51 14.2z"/></g><path class="st4" d="M69.2 180.2H51c-1.3 0-2.3 1-2.3 2.3v5.5h-.8c-.5 0-.9.4-.9.9s.4.9.9.9h.8v9.3h-.8c-.5 0-.9.4-.9.9s.4.9.9.9h.8v5.8c0 1.3 1 2.3 2.3 2.3h18.2c1.3 0 2.3-1 2.3-2.3v-24.2c0-1.3-1-2.3-2.3-2.3zm.6 26.5c0 .3-.3.6-.6.6H51c-.3 0-.6-.3-.6-.6v-5.8h.8c.5 0 .9-.4.9-.9s-.4-.9-.9-.9h-.8v-9.3h.8c.5 0 .9-.4.9-.9s-.4-.9-.9-.9h-.8v-5.5c0-.3.3-.6.6-.6h18.2c.3 0 .6.3.6.6v24.2z"/><path class="st4" d="M62 194.2h-2.7c-2.6 0-4.7 2.1-4.7 4.8v3.3c0 .4.3.8.6.8h.1c.4 0 .7-.3.7-.7V199c0-1.9 1.5-3.4 3.4-3.4H62c.9 0 1.7.4 2.4 1 .7.8 1.1 2 1 3.1v2.2h-1.2v-2.2c.1-.4-.2-.7-.5-.8-.4-.1-.7.2-.8.5V202.6c0 .4.3.7.7.7H66c.4 0 .7-.3.7-.7v-2.9c0-3.3-2.1-5.5-4.7-5.5zM60.6 193.6c2.2 0 4.1-1.8 4.1-4.1s-1.8-4.1-4.1-4.1c-2.2 0-4.1 1.8-4.1 4.1.1 2.3 1.9 4.1 4.1 4.1zm0-6.9c1.6 0 2.9 1.3 2.9 2.9s-1.3 2.9-2.9 2.9-2.9-1.3-2.9-2.9 1.3-2.9 2.9-2.9z"/><path class="st5" d="M72.1 231.8l-9.4-8.6c-.2-.2-.5-.3-.8-.2-.3.1-.5.3-.5.6s0 .6.2.8l7.1 6.5c-1.3.3-2.3 1.3-2.7 2.7l-9.5-10.2c-.2-.3-.6-.3-.9-.2-1.5.7-3.2.6-4.6-.3s-2.3-2.3-2.5-3.9l2.5 2.4c.3.3.8.3 1.1 0l4.4-4.4c.3-.3.3-.8 0-1.1l-2.6-2.6c1.2.1 2.4.6 3.2 1.5 1.5 1.5 1.9 3.7 1 5.6-.2.4 0 .9.4 1.1.4.2.9 0 1.1-.4 1.1-2.5.6-5.4-1.4-7.4-1.7-1.7-4.1-2.3-6.4-1.8-.3.1-.5.3-.6.6s0 .6.2.8l3.2 3.2-3.3 3.3-3.1-3.1c-.2-.2-.5-.3-.8-.2s-.5.3-.6.6c-.5 2.2.1 4.6 1.8 6.2 1.8 1.9 4.5 2.5 7 1.6l10.9 11.7.1.1c.7.8 1.7 1.4 2.8 1.4 2 0 3.7-1.6 3.7-3.7.1-1-.3-1.9-1-2.6zm-2.6 4.7c-.6 0-1.2-.3-1.6-.8 0-.1-.1-.1-.1-.2-.2-.3-.3-.7-.3-1.1 0-1.1.9-2 2-2s2 .9 2 2c.1 1.2-.8 2.1-2 2.1z"/><g><path class="st4" d="M70.6 249.4c-.5 0-.9.4-.9.9V267c0 .3-.2.5-.5.5H50.4c-.3 0-.5-.2-.5-.5v-24.8c0-.3.2-.5.5-.5h14.1l5.4 5.6c.3.3.9.4 1.2 0 .3-.3.4-.9 0-1.2l-5.6-5.8c-.2-.2-.4-.3-.6-.3H50.4c-1.2 0-2.2 1-2.2 2.2V267c0 1.2 1 2.2 2.2 2.2h18.8c1.2 0 2.2-1 2.2-2.2v-16.8c.1-.4-.3-.8-.8-.8z"/><path class="st4" d="M61.6 256.8c.3.3.8.3 1.1 0l3.7-3.4c.2-.1.4-.4.4-.7 0-.2-.1-.4-.2-.5-.1-.1-.2-.2-.3-.2 0-.1-.1-.2-.2-.3l-3.7-3.4c-.2-.2-.5-.3-.8-.2-.3.1-.5.3-.6.5-.1.3 0 .5.2.7l2.8 2.6h-2.3-1.3c-1.9.2-3.8 1.1-5.1 2.5-1.7 1.7-2.6 4.1-2.5 6.5 0 .4.3.7.7.7.2 0 .4-.1.5-.2.1-.2.2-.4.2-.6-.1-2 .6-4 2.1-5.4 1.2-1.2 2.7-1.9 4.4-2H64l-2.4 2.3c-.3.3-.3.8 0 1.1z"/></g><g><path class="st2" d="M22.6 272.5c.2 0 .3 0 .5.1.3.2.4.5.4.8l-.8 3.2c1.6.7 3.1 1.7 4.2 3.1l2.6-1.9.2-.1h.3c.4 0 .7.2.8.6.1.3 0 .7-.2.9l-2.5 2c1 1.5 1.5 3.3 1.6 5.1l2.6 1 .1.1c.4.3.4.9.1 1.2-.2.2-.4.3-.7.3h-.2l-2.1-.7c-.3 2.3-1.7 4.3-3.6 5.5-1.3.8-2.8 1.1-4.2 1.1-1.1 0-2.2-.2-3.2-.6l-.7 2.8v.2c-.1.3-.5.5-.8.5-.1 0-.2 0-.4-.1-.4-.2-.6-.6-.5-1l.6-3.2c-1.3-.8-2.5-1.9-3.4-3.1l-2.7 1.7h-.4c-.4 0-.8-.3-.9-.7-.1-.3 0-.7.3-.9l2.7-1.8c-.8-1.5-1.1-3.2-1.1-5l-3.2-.5-.1-.1c-.4-.2-.6-.8-.4-1.2.2-.3.5-.5.8-.5l3.1.4c.2-.8.5-1.7 1-2.4v-.3c-.5-.9-.7-1.9-.5-2.8l.1-.2c.2-.8.7-1.5 1.4-1.9.5-.3 1-.4 1.6-.4.3 0 .5 0 .8.1.8.2 1.6.8 2.1 1.5l.6.8h.7c.6 0 1.2.1 1.8.2l.8-3.1v-.4c.2-.2.5-.3.8-.3m0-1.8c-.9 0-1.7.4-2.2 1.2l-.1.2c-.1.1-.2.3-.2.5l-.4 1.7h-.2l-.1-.1c-.7-1-1.8-1.8-3-2.1h-.2c-.5-.2-.9-.3-1.2-.3-.9 0-1.7.2-2.5.6-1.2.7-2 1.8-2.2 3.1v.3c-.3 1.2-.2 2.5.3 3.6-.1.2-.2.3-.2.5l-1.7-.2H8.4c-1 0-1.9.5-2.3 1.4-.3.6-.4 1.3-.2 2s.7 1.2 1.3 1.6l.1.1c.2.1.4.2.6.2l1.8.3c.1 1 .3 1.9.6 2.8l-1.5 1c-.1 0-.1.1-.2.1-.8.5-1.1 1.6-.9 2.5.3 1.2 1.3 2 2.6 2 .2 0 .4 0 .6-.1h.2c.2 0 .4-.1.5-.2l1.4-.9c.6.6 1.2 1.1 1.8 1.6l-.4 2.1c-.3 1.2.3 2.5 1.5 3 .3.2.7.2 1.1.2 1 0 2-.6 2.4-1.6 0-.1.1-.2.1-.2V297.3l.2-1c.6.1 1.3.2 1.9.2 1.8 0 3.5-.5 5.1-1.4 1.8-1.1 3.2-2.8 4-4.7l.3.1c.1 0 .1 0 .2.1.2 0 .4.1.6.1.8 0 1.5-.4 2-1 .9-1.1.7-2.8-.4-3.7l-.2-.1c-.1-.1-.3-.2-.5-.3l-1.6-.6c-.2-1.2-.5-2.3-1-3.3l1.4-1.1c.1 0 .1-.1.2-.1.7-.7.9-1.7.7-2.6-.3-1.1-1.4-1.8-2.5-1.8-.3 0-.5 0-.8.1l-.2.1c-.2.1-.3.1-.5.3l-1.4 1c-.6-.9-1.4-1.4-2.3-1.9l.4-1.9v-.2c.1-1-.3-1.9-1.2-2.5-.3-.2-.8-.4-1.3-.4z"/><path class="st2" d="M17.7 290.9h-.2c-.4-.1-.6-.5-.6-.9 0-.1 1.6-6.4 8.5-5.7.4 0 .7.4.7.8s-.4.7-.8.7c-5.6-.5-6.9 4.4-6.9 4.6-.1.3-.4.5-.7.5zm-2-3.6h-.2c-.4-.1-.6-.5-.6-.9 0-.1 1.6-6.4 8.5-5.7.4 0 .7.4.7.8s-.4.7-.8.7c-5.6-.5-6.9 4.4-6.9 4.6-.1.3-.4.5-.7.5z"/></g><g><path class="st5" d="M62.5 272.5c.2 0 .3 0 .5.1.3.2.4.5.4.8l-.8 3.2c1.6.7 3.1 1.7 4.2 3.1l2.6-1.9.2-.1h.3c.4 0 .7.2.8.6.1.3 0 .7-.2.9l-2.5 2c1 1.5 1.5 3.3 1.6 5.1l2.6 1 .1.1c.4.3.4.9.1 1.2-.2.2-.4.3-.7.3h-.2l-2.1-.7c-.3 2.3-1.7 4.3-3.6 5.5-1.3.8-2.8 1.1-4.2 1.1-1.1 0-2.2-.2-3.2-.6l-.7 2.8v.2c-.1.3-.5.5-.8.5-.1 0-.2 0-.4-.1-.4-.2-.6-.6-.5-1l.6-3.2c-1.3-.8-2.5-1.9-3.4-3.1l-2.7 1.7h-.4c-.4 0-.8-.3-.9-.7-.1-.3 0-.7.3-.9l2.7-1.8c-.8-1.5-1.1-3.2-1.1-5l-3.2-.5-.1-.1c-.4-.2-.6-.8-.4-1.2.2-.3.5-.5.8-.5l3.1.4c.2-.8.5-1.7 1-2.4v-.3c-.5-.9-.7-1.9-.5-2.8l.1-.2c.2-.8.7-1.5 1.4-1.9.5-.3 1-.4 1.6-.4.3 0 .5 0 .8.1.8.2 1.6.8 2.1 1.5l.6.8h.7c.6 0 1.2.1 1.8.2l.8-3.1v-.4c.2-.2.5-.3.8-.3m0-1.8c-.9 0-1.7.4-2.2 1.2l-.1.2c-.1.1-.2.3-.2.5l-.4 1.7h-.2l-.1-.1c-.7-1-1.8-1.8-3-2.1h-.2c-.5-.2-.9-.3-1.2-.3-.9 0-1.7.2-2.5.6-1.2.7-2 1.8-2.2 3.1v.3c-.3 1.2-.2 2.5.3 3.6-.1.2-.2.3-.2.5l-1.7-.2H48.3c-1 0-1.9.5-2.3 1.4-.3.6-.4 1.3-.2 2s.7 1.2 1.3 1.6l.1.1c.2.1.4.2.6.2l1.8.3c.1 1 .3 1.9.6 2.8l-1.5 1c-.1 0-.1.1-.2.1-.8.5-1.1 1.6-.9 2.5.3 1.2 1.3 2 2.6 2 .2 0 .4 0 .6-.1h.2c.2 0 .4-.1.5-.2l1.4-.9c.6.6 1.2 1.1 1.8 1.6l-.4 2.1c-.3 1.2.3 2.5 1.5 3 .3.2.7.2 1.1.2 1 0 2-.6 2.4-1.6 0-.1.1-.2.1-.2V297.3l.2-1c.6.1 1.3.2 1.9.2 1.8 0 3.5-.5 5.1-1.4 1.8-1.1 3.2-2.8 4-4.7l.3.1c.1 0 .1 0 .2.1.2 0 .4.1.6.1.8 0 1.5-.4 2-1 .9-1.1.7-2.8-.4-3.7l-.2-.1c-.1-.1-.3-.2-.5-.3L71 285c-.2-1.2-.5-2.3-1-3.3l1.4-1.1c.1 0 .1-.1.2-.1.7-.7.9-1.7.7-2.6-.3-1.1-1.4-1.8-2.5-1.8-.3 0-.5 0-.8.1l-.2.1c-.2.1-.3.1-.5.3l-1.4 1c-.6-.9-1.4-1.4-2.3-1.9l.4-1.9v-.2c.1-1-.3-1.9-1.2-2.5-.3-.2-.8-.4-1.3-.4z"/><path class="st5" d="M57.6 290.9h-.2c-.4-.1-.6-.5-.6-.9 0-.1 1.6-6.4 8.5-5.7.4 0 .7.4.7.8s-.4.7-.8.7c-5.6-.5-6.9 4.4-6.9 4.6-.1.3-.4.5-.7.5zm-2-3.6h-.2c-.4-.1-.6-.5-.6-.9 0-.1 1.6-6.4 8.5-5.7.4 0 .7.4.7.8s-.4.7-.8.7c-5.6-.5-6.9 4.4-6.9 4.6-.1.3-.4.5-.7.5z"/></g></svg>