<?xml version="1.0" encoding="utf-8"?>
<!-- Generator: Adobe Illustrator 16.0.0, SVG Export Plug-In . SVG Version: 6.00 Build 0)  -->
<!DOCTYPE svg PUBLIC "-//W3C//DTD SVG 1.1//EN" "http://www.w3.org/Graphics/SVG/1.1/DTD/svg11.dtd">
<svg version="1.1" id="Layer_1" xmlns="http://www.w3.org/2000/svg" xmlns:xlink="http://www.w3.org/1999/xlink" x="0px" y="0px"
	 width="332.5px" height="41.776px" viewBox="0 0 332.5 41.776" enable-background="new 0 0 332.5 41.776" xml:space="preserve">
<path fill="#414042" d="M21.908,12.454h6.371v25.39h-6.371V35.16c-1.243,1.184-2.491,2.035-3.741,2.557
	c-1.251,0.521-2.607,0.781-4.067,0.781c-3.279,0-6.115-1.272-8.508-3.816c-2.393-2.543-3.589-5.706-3.589-9.486
	c0-3.92,1.157-7.133,3.472-9.638c2.316-2.503,5.128-3.756,8.438-3.756c1.523,0,2.952,0.288,4.289,0.863
	c1.336,0.576,2.571,1.44,3.706,2.591V12.454z M15.211,17.681c-1.97,0-3.605,0.697-4.908,2.089c-1.302,1.392-1.953,3.178-1.953,5.356
	c0,2.193,0.662,3.997,1.988,5.413c1.326,1.417,2.957,2.124,4.896,2.124c2,0,3.659-0.696,4.977-2.087
	c1.318-1.393,1.977-3.217,1.977-5.473c0-2.209-0.659-3.998-1.977-5.367C18.893,18.367,17.227,17.681,15.211,17.681"/>
<rect x="34.019" y="2.653" fill="#414042" width="6.371" height="35.19"/>
<polygon fill="#414042" points="46.224,2.653 52.594,2.653 52.594,22.921 61.975,12.454 69.976,12.454 59.039,24.622 71.284,37.843 
	63.375,37.843 52.594,26.142 52.594,37.843 46.224,37.843 "/>
<path fill="#414042" d="M92.638,12.454h6.371v25.39h-6.371V35.16c-1.243,1.184-2.49,2.035-3.741,2.557
	c-1.251,0.521-2.607,0.781-4.067,0.781c-3.279,0-6.115-1.272-8.508-3.816c-2.393-2.543-3.589-5.706-3.589-9.486
	c0-3.92,1.157-7.133,3.472-9.638c2.316-2.503,5.129-3.756,8.438-3.756c1.523,0,2.952,0.288,4.289,0.863
	c1.336,0.576,2.571,1.44,3.706,2.591V12.454z M85.941,17.681c-1.969,0-3.605,0.697-4.907,2.089
	c-1.303,1.392-1.954,3.178-1.954,5.356c0,2.193,0.662,3.997,1.988,5.413c1.326,1.417,2.957,2.124,4.896,2.124
	c2,0,3.66-0.696,4.977-2.087c1.318-1.393,1.977-3.217,1.977-5.473c0-2.209-0.659-3.998-1.977-5.367
	C89.625,18.367,87.958,17.681,85.941,17.681"/>
<path fill="#414042" d="M103.956,12.454h5.46v3.197c0.591-1.26,1.377-2.216,2.357-2.869c0.98-0.654,2.054-0.981,3.22-0.981
	c0.824,0,1.688,0.218,2.59,0.653l-1.983,5.484c-0.747-0.373-1.361-0.559-1.843-0.559c-0.981,0-1.809,0.606-2.486,1.82
	c-0.676,1.213-1.015,3.593-1.015,7.14l0.023,1.237v10.268h-6.323V12.454z"/>
<path fill="#414042" d="M139.472,12.454h6.371v25.39h-6.371V35.16c-1.243,1.184-2.49,2.035-3.74,2.557
	c-1.251,0.521-2.607,0.781-4.067,0.781c-3.279,0-6.115-1.272-8.508-3.816c-2.393-2.543-3.59-5.706-3.59-9.486
	c0-3.92,1.158-7.133,3.473-9.638c2.316-2.503,5.128-3.756,8.438-3.756c1.523,0,2.952,0.288,4.289,0.863
	c1.335,0.576,2.571,1.44,3.705,2.591V12.454z M132.776,17.681c-1.97,0-3.605,0.697-4.908,2.089
	c-1.302,1.392-1.953,3.178-1.953,5.356c0,2.193,0.662,3.997,1.988,5.413c1.326,1.417,2.957,2.124,4.895,2.124
	c2.001,0,3.66-0.696,4.978-2.087c1.317-1.393,1.977-3.217,1.977-5.473c0-2.209-0.66-3.998-1.977-5.367
	C136.458,18.367,134.792,17.681,132.776,17.681"/>
<path fill="#414042" d="M152.237,12.454h6.371v2.917c1.089-1.198,2.299-2.092,3.631-2.683c1.331-0.592,2.783-0.887,4.355-0.887
	c1.588,0,3.02,0.389,4.297,1.167c1.276,0.778,2.304,1.914,3.082,3.406c1.013-1.492,2.254-2.628,3.725-3.406
	c1.472-0.778,3.079-1.167,4.822-1.167c1.806,0,3.394,0.42,4.764,1.26s2.355,1.937,2.954,3.291c0.6,1.353,0.899,3.554,0.899,6.603
	v14.889h-6.417V24.962c0-2.877-0.358-4.826-1.073-5.846c-0.716-1.018-1.789-1.527-3.221-1.527c-1.09,0-2.065,0.31-2.929,0.932
	c-0.863,0.623-1.505,1.482-1.926,2.579c-0.419,1.097-0.629,2.858-0.629,5.286v11.458h-6.418V25.546c0-2.272-0.168-3.917-0.503-4.936
	c-0.335-1.018-0.838-1.777-1.509-2.275c-0.67-0.498-1.481-0.746-2.432-0.746c-1.06,0-2.023,0.314-2.889,0.944
	c-0.866,0.63-1.513,1.514-1.941,2.65c-0.429,1.135-0.643,2.923-0.643,5.366v11.295h-6.371V12.454z"/>
<path fill="#BE1E2D" d="M211.324,15.231l-2.1,2.171c-1.747-1.696-3.455-2.544-5.123-2.544c-1.062,0-1.97,0.35-2.727,1.05
	c-0.756,0.699-1.135,1.516-1.135,2.45c0,0.825,0.313,1.61,0.936,2.357c0.624,0.763,1.934,1.657,3.929,2.683
	c2.433,1.261,4.085,2.474,4.958,3.641c0.857,1.182,1.285,2.512,1.285,3.991c0,2.084-0.73,3.849-2.196,5.296
	c-1.465,1.446-3.296,2.171-5.491,2.171c-1.466,0-2.864-0.319-4.196-0.957c-1.332-0.639-2.435-1.518-3.308-2.638l2.055-2.334
	c1.668,1.884,3.438,2.825,5.309,2.825c1.311,0,2.425-0.421,3.345-1.261s1.381-1.828,1.381-2.964c0-0.934-0.305-1.766-0.912-2.497
	c-0.608-0.715-1.98-1.617-4.115-2.706c-2.292-1.183-3.853-2.349-4.678-3.502c-0.826-1.15-1.239-2.464-1.239-3.943
	c0-1.929,0.658-3.53,1.975-4.807c1.316-1.275,2.98-1.914,4.99-1.914C206.604,11.8,208.957,12.944,211.324,15.231"/>
<polygon fill="#BE1E2D" points="219.96,3.027 223.227,3.027 223.227,12.454 228.406,12.454 228.406,15.278 223.227,15.278 
	223.227,37.844 219.96,37.844 219.96,15.278 215.503,15.278 215.503,12.454 219.96,12.454 "/>
<path fill="#BE1E2D" d="M234.069,12.454h3.267v11.855c0,2.894,0.156,4.885,0.469,5.974c0.467,1.556,1.358,2.785,2.676,3.686
	c1.315,0.903,2.886,1.354,4.709,1.354c1.822,0,3.369-0.438,4.639-1.318c1.27-0.878,2.146-2.033,2.629-3.465
	c0.327-0.979,0.491-3.057,0.491-6.23V12.454h3.337v12.462c0,3.5-0.409,6.137-1.225,7.911c-0.817,1.773-2.046,3.162-3.688,4.165
	s-3.7,1.505-6.173,1.505s-4.539-0.502-6.195-1.505s-2.894-2.402-3.71-4.201c-0.817-1.795-1.226-4.5-1.226-8.107V12.454z"/>
<path fill="#BE1E2D" d="M287.702,2.653v35.191h-3.22V33.48c-1.369,1.665-2.905,2.917-4.609,3.757
	c-1.703,0.84-3.566,1.261-5.589,1.261c-3.593,0-6.662-1.303-9.206-3.908c-2.543-2.606-3.814-5.777-3.814-9.51
	c0-3.656,1.283-6.783,3.85-9.38c2.567-2.599,5.655-3.898,9.266-3.898c2.084,0,3.971,0.443,5.657,1.33
	c1.689,0.887,3.17,2.216,4.446,3.99V2.653H287.702z M274.646,14.951c-1.818,0-3.497,0.447-5.035,1.341
	c-1.539,0.893-2.762,2.148-3.671,3.764c-0.909,1.617-1.363,3.325-1.363,5.127c0,1.789,0.458,3.498,1.375,5.129
	c0.916,1.632,2.148,2.902,3.694,3.812c1.546,0.908,3.205,1.362,4.977,1.362c1.787,0,3.48-0.45,5.081-1.351
	c1.602-0.901,2.831-2.122,3.694-3.66s1.294-3.271,1.294-5.198c0-2.936-0.967-5.392-2.902-7.366
	C279.855,15.938,277.475,14.951,274.646,14.951"/>
<path fill="#BE1E2D" d="M296.231,2c0.743,0,1.379,0.265,1.905,0.793c0.527,0.529,0.79,1.167,0.79,1.914
	c0,0.732-0.263,1.362-0.79,1.89c-0.526,0.529-1.162,0.793-1.905,0.793c-0.729,0-1.355-0.264-1.883-0.793
	c-0.525-0.528-0.789-1.158-0.789-1.89c0-0.747,0.264-1.385,0.789-1.914C294.876,2.265,295.503,2,296.231,2 M294.61,12.454h3.268
	v25.39h-3.268V12.454z"/>
<path fill="#BE1E2D" d="M316.686,11.801c3.911,0,7.153,1.416,9.726,4.247c2.337,2.582,3.506,5.64,3.506,9.171
	c0,3.547-1.235,6.647-3.705,9.3c-2.472,2.651-5.646,3.978-9.526,3.978c-3.896,0-7.078-1.326-9.549-3.978
	c-2.472-2.653-3.705-5.753-3.705-9.3c0-3.515,1.168-6.565,3.506-9.147C309.508,13.225,312.758,11.801,316.686,11.801
	 M316.673,14.998c-2.716,0-5.051,1.003-7.003,3.011c-1.949,2.006-2.926,4.434-2.926,7.28c0,1.836,0.446,3.547,1.335,5.133
	c0.891,1.588,2.091,2.813,3.607,3.677c1.513,0.862,3.177,1.295,4.986,1.295c1.813,0,3.476-0.433,4.988-1.295
	c1.515-0.864,2.718-2.089,3.608-3.677c0.888-1.586,1.335-3.297,1.335-5.133c0-2.846-0.982-5.274-2.941-7.28
	C321.704,16.001,319.373,14.998,316.673,14.998"/>
</svg>
