<svg width="2000" height="131" xmlns="http://www.w3.org/2000/svg" viewBox="0 0 2000 131.2" style="enable-background:new 0 0 2000 131.2" xml:space="preserve"><style>.st1{opacity:.35;enable-background:new}</style><path d="M-.5 83.4c59.6 40.5 193.3 35 316.7-12.3C525.6-9.2 756.7-9.6 979.8 12.3s445.6 57.9 669.8 54.1C1821.1 63.5 1932 56 2000 53v76.4H1l-1.5-46z" style="opacity:.25;enable-background:new"/><path class="st1" d="M309.2 46.1c265.1-57.8 453.7-19.6 687.9 6.8 285.1 32.2 564.2 63 863.4 33.4 94-9.3 119.5-19.6 139.5-19v63H0v-66s152.7 15.9 309.2-18.2z"/><path class="st1" d="M344.5 54.9c82.3-26.3 167.2-46 253-36.5S767 51.6 851.9 67.8c272.3 52 522.5 16.7 819.3 5 90-3.5 293.8-13.6 328.8-12.6v71H-1v-59c0 .1 199.7 29.4 345.5-17.3z"/><path d="M1731.8 97.1c-289.3 18.5-590.4 17.2-873.9-16.8C746 66.9 641.1 42.1 528.5 39.5s-249.3 31-353.7 69.9c-57.5 21.4-164.7 2.3-175.7-4.7v26.5h2003v-58c-.1.1-147.9 16-270.3 23.9z"/></svg>