<svg class="hidden-xs desktop-qalogo" width="155" height="50" xmlns="http://www.w3.org/2000/svg" viewBox="0 0 104.9 34" xml:space="preserve"><path fill="#525A68" d="M21.5 27.4H20.2l.7-1.6.6 1.6zm.8 1.8h1c-.3-.6-.7-1.6-1-2.2-.2-.6-.6-1.5-.9-2.4H21c-.2.5-.5 1.4-1.2 2.9l-.8 1.7h.6c.1-.4.3-.9.5-1.4h1.6l.3.7.3.7zM23.8 26.2c0 1.1 0 2.2-.1 3h1c-.1-.5-.1-1.2-.1-2.2 0-.7 0-1.8.1-2.3h-1c.1.6.1 1.1.1 1.5M27.8 27c.6-.1 1.1-.5 1.1-1.2 0-.3-.1-.5-.3-.7-.3-.3-.6-.3-1-.3h-1.8v1.8c0 1.3 0 1.4-.1 2.7h.9v-2.1h.2c.4.5.8 1.1 1.1 1.6.1.2.2.4.3.5h1.1c-.4-.5-.6-.8-1.1-1.5-.1-.1-.2-.4-.3-.5l-.1-.3zm-1.1-2h.5c.2 0 .4 0 .6.2.2.2.3.4.3.7 0 .4-.2.9-.9.9h-.5V25zM31.2 27.7c-.3-.9-.7-2.2-.9-3h-1c.3.7.5 1.3.7 1.8.3.9.5 1.4.7 2.2l.2.5h.5c.1-.3.2-.8.3-1 .3-.8.3-.9.6-1.8l.2-.5c.1.2.2.5.3.8.1.2.4 1.2.5 1.4.1.3.1.4.4 1.2h.6c.3-.8.3-.9.6-1.9.4-1 .6-1.6 1-2.6h-.6c-.2.9-.4 1.3-.5 1.8-.3.9-.3 1-.5 1.5-.2-.6-.4-1.1-.6-1.7-.3-.4-.7-1.7-.7-1.7h-.6c-.2.8-.9 2.7-1 2.9l-.1.4-.1-.3zM37.8 27.4H36.5l.7-1.6.6 1.6zm.8 1.8h1c-.3-.6-.7-1.6-1-2.2-.2-.6-.6-1.5-.9-2.4h-.4c-.2.5-.5 1.4-1.2 2.9l-.8 1.7h.6c.1-.4.3-.9.5-1.4H38l.3.7.3.7zM41.3 27.4c0-.1 0-.1.1-.2.3-.5.5-1 .8-1.4.1-.2.6-.9.7-1.1h-.7c-.5 1-.6 1.3-1.1 2.2-.6-1-.8-1.5-1.2-2.2h-1c.3.6.9 1.5 1.2 2.1l.4.7v1.8h.9v-1.9zM43.3 28.2c0 .3 0 .4-.2.7.2.1.7.3 1.2.3 1.2 0 1.7-.8 1.7-1.4 0-.2 0-.6-.3-.9-.2-.2-.4-.3-.9-.5-.6-.2-.9-.4-.9-.8s.3-.7.8-.7c.4 0 .8.2.9.6h.1l.2-.6c-.3-.1-.6-.3-1.1-.3-1.2 0-1.5.7-1.5 1.3 0 .5.2.9.8 1.2.2.1.5.2.7.3.1.1.5.2.5.8 0 .5-.3.8-.9.8-.4 0-.7-.1-1.1-.8z"/><path fill="#5C0D34" d="M6.7 16c0-5 2.7-6.3 4.7-6.3 3.2 0 4.6 2.7 4.6 5.6 0 1.6-.2 3.2-1 4.4-.8 1.2-2.2 2-3.6 2-3.6 0-4.7-3.5-4.7-5.7m9.9 10.2c.6-.4 1.5-.9 2.2-1.2l-4.5-2.8c2.7-1 4.5-3.4 4.5-6.8 0-4.7-3.6-6.8-7.3-6.8-4 0-7.4 2.2-7.4 7.2-.1 1.2.2 3.2 1.8 4.9 1.7 1.7 3.8 2 5.5 2h.7l4.5 3.5zM28 16.9c-.6 0-1.2.1-1.8.1-.7 0-1.4-.1-2.1-.1l2-4.9 1.9 4.9zm2.2 5.5c.4 0 .9-.1 1.5-.1s1.2.1 1.5.1c-.9-1.9-2.2-4.9-2.9-6.6-.7-1.7-1.9-4.4-2.8-7.1-.2.1-.4.1-.6.1-.2 0-.4 0-.7-.1-.5 1.6-1.6 4.2-3.6 8.7l-2.3 5.1c.3 0 .6-.1.9-.1.3 0 .7.1.9.1.3-1.1.9-2.8 1.6-4.3.8 0 1.6-.1 2.4-.1.8 0 1.7 0 2.5.1l.8 2.1.8 2.1zM39 12.4v-2.2c1.4 0 2.8 0 3.9.1-.1-.3-.1-.5-.1-.7 0-.2 0-.4.1-.8-1.9.2-3.6.2-5.2.2-1.5 0-3.7 0-5.3-.1.1.2.1.5.1.7 0 .2 0 .5-.1.7 1-.1 2.9-.1 3.1-.1h1v7.7c0 1.5-.1 3-.2 4.5.7-.1 1-.1 1.3-.1.2 0 .9.1 1.4.1v-10zM50 16.9c-.6 0-1.2.1-1.8.1-.7 0-1.4-.1-2.1-.1l2-4.9 1.9 4.9zm2.2 5.5c.4 0 .9-.1 1.5-.1s1.2.1 1.5.1c-.9-1.9-2.2-4.9-2.9-6.6-.7-1.7-1.9-4.4-2.8-7.1-.2.1-.4.1-.6.1-.2 0-.4 0-.7-.1-.5 1.6-1.6 4.2-3.6 8.7l-2.3 5.1c.3 0 .6-.1.9-.1.3 0 .7.1.9.1.3-1.1.9-2.8 1.6-4.3.8 0 1.6-.1 2.4-.1.8 0 1.7 0 2.5.1l.8 2.1.8 2.1zM63.2 15.7c1.8-.3 3.4-1.5 3.4-3.7 0-.8-.3-1.6-.9-2.2-.8-.8-1.8-1-3.1-1-.5 0-2.7.1-3.3.1-1 0-1.5-.1-2-.1.1 2.5.1 2.8.1 5.4 0 3.8 0 4.2-.2 8.1.4-.1.9-.1 1.4-.1.5 0 .9.1 1.3.1 0-.5-.1-3.1-.1-3.6V16h.5c1.1 1.5 2.3 3.2 3.3 4.8.3.5.7 1.2 1 1.6.6-.1.8-.1 1.6-.1.7 0 1.2.1 1.8.1-1.2-1.6-1.8-2.3-3.3-4.4-.3-.4-.7-1.1-1-1.5l-.5-.8zm-3.3-5.8c.3 0 1-.1 1.4-.1.7 0 1.3.1 1.8.5.7.5.8 1.2.8 2.1 0 1.3-.7 2.7-2.7 2.7-.5 0-1 0-1.4-.1V9.9z"/><path fill="#757F8B" d="M92.7 15.7c0 .1-1.8.2-4.3.3-.5-.3-.8-.5-1-.7 3 .2 5.3.3 5.3.4M90.9 11.4c0 .1-1.5.2-3.6.3.3-.2.6-.4 1-.5 1.5.1 2.6.1 2.6.2M74.9 20.7h-2.5c-1 0-1.8-.3-1.8-.7 0-.4.8-.7 1.8-.7h3.4c-.6.9-.8 1.3-.9 1.4M75.4 21.6c.3.4.6.7 1.1 1.1 0 0 .2.2.6 0 .5-.2.9-.5 1.4-1.1 1.4 0 2.8.1 4.2.1.1.2.4.5.6 1-4 .1-8.3.2-10.5.2-.9 0-1.7-.3-1.7-.6 0-.4.7-.6 1.7-.6.8-.1 1.6-.1 2.6-.1M73.9 24.9c-.8 0-1.5-.3-1.5-.6s.7-.6 1.5-.6c2.2 0 6.6.1 10.4.2.2.3.4.5.5.8-3.9.2-8.6.2-10.9.2M86.5 26.7c-3.2.1-8.7.2-10.9.2-.6 0-1.2-.2-1.2-.4s.5-.4 1.2-.4c2.2 0 7.3.1 10.5.2.1.1.2.3.4.4M78.2 27.9c1.9 0 7.6.1 7.6.3 0 .2-5.7.3-7.6.3-.4 0-.7-.1-.7-.3 0-.1.3-.3.7-.3M78.2 16.4c-2.4 0-4.5.1-5.8.1-1 0-1.8-.3-1.8-.7 0-.4.8-.7 1.8-.7 1.6 0 4.2 0 7 .1-.5.4-.9.8-1.2 1.2M89.8 13.3c1.4.1 2.3.2 2.3.2 0 .1-1.1.2-2.7.3.3-.2.4-.4.4-.5M72.9 14.2c-.9 0-1.7-.3-1.7-.6 0-.4.7-.6 1.7-.6 1.9 0 5.3 0 8.7.1-.4.4-.8.7-1.2 1.1h-7.5M83.2 11.9c-3.5.1-7.3.1-9.3.1-.8 0-1.5-.3-1.5-.6s.7-.6 1.5-.6c2.2 0 6.6.1 10.4.2-.2.1-.4.3-.6.4-.2.2-.4.3-.5.5M75.5 9.7c-.6 0-1.2-.2-1.2-.4s.5-.4 1.2-.4c2.5-.1 8.5 0 11.5.2-.2.1-.4.3-.6.4-3.1.1-8.6.2-10.9.2M72.2 18.6c-1 0-1.8-.3-1.8-.7 0-.4.8-.7 1.8-.7 1.2 0 3.1 0 5.2.1-.4.5-.7.9-1 1.3h-4.2M77.5 7.6c0-.2.3-.3.7-.3 1.9 0 7.6.1 7.6.3 0 .2-5.7.3-7.6.3-.4 0-.7-.2-.7-.3"/><path fill="#5C0D34" d="M92.9 17.4v1c-3.3.1-6.5.3-6.5.6 0 .2 3.1.4 6.4.6-.1.4-.1.8-.2 1.1-3.2.1-6.2.3-6.2.5s2.8.4 5.9.5c-.1.4-.3.8-.5 1.2-2.7.1-4.9.3-4.9.5s1.9.3 4.4.5c-.1.2-.3.4-.4.6-.2.2-.3.4-.5.7-1.5.1-2.6.2-2.6.4 0 .1.7.2 1.9.3-.6.6-1.4 1.2-2.2 1.7 0 0-1-.9-1.9-1.9-.8-.9-2.4-3.4-2.7-3.9-.4-.5-.6-.7-1.1-.5-.6.2-1.3.3-1.5.3s-.3-.1 0-.2c.4-.1 1.8-.8 2.4-2.2.8-1.5.1-3.7.1-3.7-.3 1.1-.9 1.6-.9 1.6.2-1.1 0-2-.5-2.7l-.4 1.2s-.2 0-.6.4c-.4.4-.6.9-.6.9.4.1.8-.2.8-.2-.5 2-1.3 3.7-1.9 4.6-.6.9-1 1.2-1.6 1.4-.5.2-.6 0-.6 0l-1.1-1.1h.1c.2 0 .7-.4.7-.6.1-.2.1-.3 0-.3s-.1.1-.6.4c-.4.3-.7.1-.8-.1-.1-.1 0-.3.1-.4.1-.1 2.4-4.5 8.7-9.2 8.2-6.1 13.5-7.7 13.8-7.9.2-.1.5-.2.6-.1.1.1.1.2.1.3 0 .1-.1.1-.4.3-3.2 1.4-6.9 3.7-8.9 5.1-2.6 1.3-5 3.1-5.1 3.1-.2.1-.1.3.1.2 4.4-2.9 9.5-4.9 15.1-6.5.3-.1.4-.1.5 0 .1.1.1.1.1.2s-.1.2-.3.2c-6.1 2.3-10.5 4.3-13.4 6.3 0 0-.3.2-.3.4 0 .1.2.1.2.1 1.4 0 3.4.1 4.3.2 0 0-.1.5-1 .8-.7.3-1.3.2-1.9.2-.1 0-.3.1-.1.3-.2.2 1.1 2.3 5.9 2.8M49 28.5h-.8s-.1-.5.2-.7c.3-.2.6-.3.6-.3v1zm3.8-1.9s-.5.3-.8.6c-.3.3.1.4.1.4v.9h-2.4v-3.3s-.9.8-.9.9c-.1.1.2.2.2.2v.3s-.3.2-.8.5c-.4.3-.7.6-.7.9 0 .2-.1 1.2-.1 1.2h5.5v-2.6zm-4.9-1.2c.3 0 .5-.1.5-.3 0-.2-.1-.4-.5-.4-.3 0-.4.1-.4.4.1.2.2.3.4.3m1 0c.3 0 .5-.1.5-.3 0-.2-.1-.4-.5-.4-.3 0-.4.1-.4.4.1.2.2.3.4.3m1.6 4.1c-.3 0-.4.1-.4.4 0 .2.1.3.4.3.3 0 .5-.1.5-.3-.1-.3-.2-.4-.5-.4m1 0c-.3 0-.4.1-.4.4 0 .2.1.3.4.3.3 0 .5-.1.5-.3 0-.3-.2-.4-.5-.4m11.8-4.1c.3 0 .5-.1.5-.3 0-.2-.1-.4-.5-.4-.3 0-.4.1-.4.4 0 .2.1.3.4.3m1 0c.3 0 .5-.1.5-.3 0-.2-.1-.4-.5-.4-.3 0-.4.1-.4.4 0 .2.1.3.4.3m2.9.1c-.1.1-.1.3.1.3v3.5h.8V25c0-.1-.8.3-.9.5m-3.1 1.9h-.5c0-.3.5-.4.5-.4v.4zm-3.3.6v.5h-4.4v-.8c.1-.3.3-.3.6-.3h3.2c.7 0 .6.4.6.6m5.1-2.3v2.8h-1V26s-.2.1-.5.2-1.3.6-1.3 1.1v.7h1.1v.5h-2.5v-.6c0-.8-.7-1.3-1.3-1.3h-2.9c-.5 0-.8.1-.9.3v-2.1s-.5.3-.8.6c-.3.3 0 .4 0 .4v2.7h-1v-2.3s-.7.5-.9.6c-.2.1-.1.3.1.3v2.1c0 .4-.3.9-1 .7 0 0-.2 0 0 .2s.4.3.7.3c.3 0 1.2-.2 1.2-1.2H67v-4.3s-.7.5-.9.6c-.4.1-.4.2-.2.2"/></svg>