<svg id="ic-badge-qr-mobile-app" xmlns="http://www.w3.org/2000/svg" xmlns:xlink="http://www.w3.org/1999/xlink" width="24" height="24" viewBox="0 0 24 24">
  <defs>
    <linearGradient id="linear-gradient" x1="0.25" x2="0.5" y2="1" gradientUnits="objectBoundingBox">
      <stop offset="0" stop-color="#5c0931"/>
      <stop offset="1" stop-color="#a1195a"/>
    </linearGradient>
  </defs>
  <path id="Path_4523" data-name="Path 4523" d="M0,0H24V24H0Z" opacity="0" fill="url(#linear-gradient)"/>
  <path id="Path_4527" data-name="Path 4527" d="M27.284,10.651H16.312A5.62,5.62,0,0,0,10.7,16.265V27.236a5.621,5.621,0,0,0,5.614,5.614h10.97A5.621,5.621,0,0,0,32.9,27.236V16.265A5.621,5.621,0,0,0,27.284,10.651Zm4.8,16.9c-1.823-.076-4.482-.279-4.478-.495.007-.277,2.171-.4,4.494-.5v.683C32.1,27.339,32.088,27.446,32.082,27.55Zm-4.337-3.266c0-.184,2.009-.379,4.353-.522V24.8a20.175,20.175,0,0,1-4.353-.519ZM32.1,21.594c-3.014-.99-3.962-2.5-4.014-2.57a.213.213,0,0,1,.181-.353,5.613,5.613,0,0,0,2.367-.3c1.08-.459,1.234-1.033,1.234-1.033-1.121-.067-3.49-.171-5.261-.2,0,0-.2-.012-.2-.107,0-.256.369-.475.369-.475a44.652,44.652,0,0,1,4.678-2.68,4.776,4.776,0,0,1,.64,2.392ZM24.4,16.248c-.154.091-.331-.129-.085-.279A54.255,54.255,0,0,1,30.15,12.4a4.729,4.729,0,0,1,.455.383,48.238,48.238,0,0,0-6.2,3.46ZM11.5,27.236V16.265a4.819,4.819,0,0,1,4.814-4.814h10.97a4.763,4.763,0,0,1,1.727.326c-1.454.95-3.009,2.019-4.674,3.251-7.73,5.729-10.654,11.178-10.742,11.286s-.223.315-.086.466c.19.2.439.439.989.088s.672-.535.732-.525.075.191-.049.425c-.114.208-.625.7-.915.695-.107,0-.075.054-.075.054A10.588,10.588,0,0,0,15.5,28.86s.2.277.788.04a3.984,3.984,0,0,0,1.977-1.77,21.007,21.007,0,0,0,2.325-5.621s-.519.439-.961.263a2.371,2.371,0,0,1,.706-1.145c.56-.467.781-.453.781-.453l.357-1.646a4.132,4.132,0,0,1,.663,3.3,3.3,3.3,0,0,0,1.048-1.921s.84,2.616-.114,4.511a6.151,6.151,0,0,1-3.01,2.676c-.44.174-.3.273-.037.273a7.3,7.3,0,0,0,1.841-.386c.545-.2.852,0,1.318.674.352.507,2.067,3,3.07,4.394H16.312A4.819,4.819,0,0,1,11.5,27.236Zm18.76,3.777.653-.624a4.812,4.812,0,0,1-.656.624Zm.88-.9a9.365,9.365,0,0,1-2.843-.4,12.1,12.1,0,0,1,3.346-.435,4.8,4.8,0,0,1-.509.836Z" transform="translate(-9.675 -9.74)" fill="url(#linear-gradient)"/>
</svg>
