<svg class="ow-white" xmlns="http://www.w3.org/2000/svg" width="33.998" height="34"><g data-name="Group 6896" fill="#fff"><path data-name="Path 2658" d="M16.999-.001a17 17 0 1 0 17 17 17.018 17.018 0 0 0-17-17m0 33.125a16.126 16.126 0 1 1 16.129-16.125 16.125 16.125 0 0 1-16.129 16.126Z"/><path data-name="Path 2659" d="M3.618 17.241c0-.453.166-.994.709-.994s.716.541.716.994-.173.99-.716.99-.709-.536-.709-.99m-1.162 0a1.875 1.875 0 1 0 1.871-1.883 1.816 1.816 0 0 0-1.869 1.883Z"/><path data-name="Path 2660" d="M6.85 15.462h1.13v.488h.014a1.327 1.327 0 0 1 1.116-.592c1.181 0 1.277.861 1.277 1.376v2.281H9.225v-1.721c0-.483.055-.976-.58-.976-.44 0-.633.368-.633.762v1.936H6.85v-3.554"/><path data-name="Path 2661" d="M12.26 16.879a.772.772 0 0 1 .755-.737.728.728 0 0 1 .7.737h-1.45m2.61.651a1.9 1.9 0 1 0-3.775-.3 1.787 1.787 0 0 0 1.947 1.89 1.677 1.677 0 0 0 1.756-1.172h-1.082a.7.7 0 0 1-.668.391.756.756 0 0 1-.794-.808Z"/><path data-name="Path 2662" d="M15.1 15.466h.468l.915 3.064h.011l.874-3.064h.492l.872 3.064h.013l.923-3.064h.461l-1.151 3.58h-.479l-.879-3.008h-.016l-.874 3.008h-.477l-1.153-3.58"/><path data-name="Path 2663" d="M23.803 17.255a1.7 1.7 0 1 1-3.386 0 1.7 1.7 0 1 1 3.386 0m-2.949 0a1.279 1.279 0 1 0 2.511 0 1.28 1.28 0 1 0-2.511 0Z"/><path data-name="Path 2664" d="M24.452 15.466h.405v.838h.014a1.322 1.322 0 0 1 1.351-.886v.433a1.238 1.238 0 0 0-1.328 1.284v1.908h-.44v-3.577"/><path data-name="Rectangle 2044" d="M26.713 14.092h.436v4.951h-.436z"/><path data-name="Path 2665" d="M31.1 19.043h-.4v-.681h-.014a1.418 1.418 0 0 1-1.275.785c-1.089 0-1.611-.879-1.611-1.892s.523-1.9 1.611-1.9a1.269 1.269 0 0 1 1.238.785h.016v-2.048h.435v4.951m-1.69-.265c.925 0 1.254-.785 1.254-1.524s-.329-1.528-1.254-1.528c-.829 0-1.169.785-1.169 1.528s.341 1.524 1.169 1.524Z"/></g></svg>