<svg xmlns="http://www.w3.org/2000/svg" width="346.12" height="77" viewBox="0 0 346.12 77">
  <g id="Layer_2" data-name="Layer 2" transform="translate(0.012)">
    <g id="Layer_1" data-name="Layer 1" transform="translate(-0.012 0)">
      <path id="Path_1" data-name="Path 1" d="M298.447,61.219a8.281,8.281,0,0,1,3.525.721,7.744,7.744,0,0,1,2.647,2,9.213,9.213,0,0,1,1.66,2.994,11.329,11.329,0,0,1,.585,3.708,12.364,12.364,0,0,1-.612,4.042,8.668,8.668,0,0,1-1.735,3.021,7.43,7.43,0,0,1-2.654,1.9,8.4,8.4,0,0,1-3.361.68,8.553,8.553,0,0,1-3.579-.68,7.566,7.566,0,0,1-2.654-2A8.927,8.927,0,0,1,290.6,74.57a12.208,12.208,0,0,1-.572-3.817,11.193,11.193,0,0,1,.66-3.9,9.1,9.1,0,0,1,1.742-3.008,7.743,7.743,0,0,1,2.674-1.946A8.254,8.254,0,0,1,298.447,61.219ZM292.4,70.7a10.368,10.368,0,0,0,.395,2.865,7.029,7.029,0,0,0,1.177,2.382,5.756,5.756,0,0,0,1.926,1.619,5.661,5.661,0,0,0,2.66.6,5.546,5.546,0,0,0,2.5-.544,5.232,5.232,0,0,0,1.871-1.524,6.872,6.872,0,0,0,1.143-2.348,10.886,10.886,0,0,0,.395-3.048,9.649,9.649,0,0,0-.436-2.98,7.1,7.1,0,0,0-1.218-2.334A5.369,5.369,0,0,0,300.9,63.86a5.661,5.661,0,0,0-2.49-.544,5.77,5.77,0,0,0-2.348.476A5.443,5.443,0,0,0,294.14,65.2a6.615,6.615,0,0,0-1.286,2.327A10.037,10.037,0,0,0,292.4,70.7Z" transform="translate(-92.674 -19.563)" fill="#fff"/>
      <path id="Path_2" data-name="Path 2" d="M319.376,80.117a.17.17,0,0,1-.2-.2V61.792a.143.143,0,0,1,.163-.163h2.769a.224.224,0,0,1,.156.041.68.68,0,0,1,.1.122c.415.68.885,1.5,1.429,2.422s1.116,1.892,1.721,2.905,1.211,2.041,1.817,3.1l1.694,2.919c.517.9.98,1.715,1.361,2.436s.68,1.252.878,1.606h0c-.041-.374-.061-.871-.075-1.5s0-1.545,0-2.722V61.82c0-.129.068-.191.2-.191h1.844c.136,0,.2.075.2.225V79.919c0,.129-.082.2-.252.2h-2.49a.293.293,0,0,1-.306-.17c-.2-.395-.558-1.014-1.048-1.858l-1.681-2.871-1.966-3.355q-1.041-1.756-1.946-3.341c-.606-1.055-1.136-1.987-1.579-2.8s-.748-1.395-.9-1.749h0c.034.538.068,1.191.082,1.946s0,1.749,0,2.974V79.919c0,.129-.054.2-.163.2Z" transform="translate(-101.988 -19.694)" fill="#fff"/>
      <path id="Path_3" data-name="Path 3" d="M356.249,61.853a.2.2,0,0,1,.17-.225c.354,0,.9-.041,1.66-.054s1.837-.034,3.232-.034a12.384,12.384,0,0,1,4.2.68,8.587,8.587,0,0,1,3.048,1.844,7.818,7.818,0,0,1,1.858,2.844,11.159,11.159,0,0,1-.279,8.124,8.69,8.69,0,0,1-2.334,2.974,8.886,8.886,0,0,1-3.218,1.653,13.132,13.132,0,0,1-3.552.5h-4.641q-.143,0-.143-.225Zm2.32,16.16a9.556,9.556,0,0,1,1.082.048h1.3a9.968,9.968,0,0,0,3.089-.463,6.723,6.723,0,0,0,2.45-1.4,6.3,6.3,0,0,0,1.606-2.348,8.8,8.8,0,0,0,.572-3.314,7.594,7.594,0,0,0-.558-3.035,6.022,6.022,0,0,0-1.551-2.171,6.8,6.8,0,0,0-2.313-1.286,9.771,9.771,0,0,0-2.953-.429h-1.4c-.449,0-.871,0-1.286.041Z" transform="translate(-113.835 -19.665)" fill="#fff"/>
      <path id="Path_4" data-name="Path 4" d="M393.342,79.947a.177.177,0,0,1-.191.17H382.524a.2.2,0,0,1-.225-.225V61.82c0-.129.061-.191.2-.191H392.7a.184.184,0,0,1,.2.163l.225,1.762c.034.136,0,.2-.143.2h-8.363V69.6h7.553c.109,0,.163.054.163.17v1.79a.15.15,0,0,1-.163.17h-7.553v6.26h8.893c.116,0,.156.054.143.17Z" transform="translate(-122.159 -19.694)" fill="#fff"/>
      <path id="Path_5" data-name="Path 5" d="M403.414,61.647a.34.34,0,0,1,.129,0h3.1a.252.252,0,0,1,.225.163c.15.49.361,1.143.64,1.973s.592,1.749.925,2.722l1.034,3.116c.354,1.075.68,2.1.993,3.076s.585,1.864.823,2.647.415,1.361.5,1.79h0c.116-.395.3-.973.565-1.749s.558-1.647.891-2.626.68-2.041,1.089-3.11.769-2.137,1.123-3.144l.966-2.722c.286-.83.517-1.483.68-1.973a.184.184,0,0,1,.2-.163h3.021a.157.157,0,0,1,.17.136l.946,18.181c0,.109-.034.17-.163.17h-2.041c-.136,0-.2-.048-.2-.143-.041-1.061-.082-2.177-.129-3.341s-.089-2.32-.122-3.47-.075-2.252-.116-3.314-.061-2.041-.082-2.919-.034-1.647-.054-2.279,0-1.1,0-1.361h0c-.116.415-.3,1.034-.565,1.864s-.565,1.756-.919,2.8-.735,2.13-1.136,3.287-.782,2.279-1.157,3.4-.721,2.109-1.048,3.048-.585,1.708-.769,2.307a.2.2,0,0,1-.225.17h-1.96c-.15,0-.231-.061-.252-.17l-.837-2.654-.993-3.11q-.517-1.619-1.034-3.273t-.966-3.116q-.449-1.47-.8-2.654c-.238-.8-.415-1.422-.544-1.892h-.061c0,.408,0,.973-.041,1.681s-.068,1.517-.109,2.429-.1,1.9-.156,2.953-.116,2.13-.184,3.232-.122,2.2-.177,3.3-.116,2.137-.17,3.1c0,.109-.068.17-.2.17h-1.9a.15.15,0,0,1-.17-.17L403.4,61.858C403.414,61.708,403.414,61.654,403.414,61.647Z" transform="translate(-128.509 -19.698)" fill="#fff"/>
      <path id="Path_6" data-name="Path 6" d="M437.76,74.3l-2.041,5.648a.218.218,0,0,1-.225.17h-1.9c-.15,0-.2-.075-.17-.225l6.124-16.977c.041-.116.075-.238.116-.381a4.9,4.9,0,0,0,.082-.769.122.122,0,0,1,.143-.136h2.722a.157.157,0,0,1,.17.136l6.573,18.154c.054.129,0,.2-.109.2h-2.13a.252.252,0,0,1-.224-.143L444.85,74.3Zm6.464-2.157c-.15-.449-.361-1.061-.633-1.844s-.551-1.592-.851-2.436-.578-1.647-.844-2.429-.456-1.422-.585-1.905h0c-.109.449-.272,1.007-.49,1.667s-.456,1.361-.728,2.15-.551,1.579-.837,2.409-.565,1.626-.823,2.388Z" transform="translate(-138.495 -19.694)" fill="#fff"/>
      <path id="Path_7" data-name="Path 7" d="M460.207,80.117a.177.177,0,0,1-.2-.2V61.793c0-.109.054-.163.17-.163h2.769a.2.2,0,0,1,.15.041.681.681,0,0,1,.1.122l1.429,2.422,1.715,2.905c.606,1.021,1.211,2.041,1.824,3.1l1.688,2.919c.524.9.987,1.715,1.361,2.436s.68,1.252.878,1.606h0c-.034-.374-.061-.871-.068-1.5s0-1.545,0-2.722V61.82c0-.129.061-.191.2-.191h1.844c.129,0,.2.075.2.225V79.919c0,.129-.088.2-.252.2H471.57c-.17,0-.272-.061-.306-.17-.211-.395-.558-1.014-1.048-1.858l-1.681-2.871q-.939-1.592-1.973-3.355t-1.946-3.341q-.9-1.585-1.579-2.8c-.442-.81-.742-1.395-.891-1.749h0c0,.538.061,1.191.082,1.946s0,1.749,0,2.974V79.919c0,.129-.054.2-.17.2Z" transform="translate(-146.993 -19.694)" fill="#fff"/>
      <path id="Path_8" data-name="Path 8" d="M486.879,61.853a.2.2,0,0,1,.17-.225c.354,0,.912-.041,1.66-.054s1.837-.034,3.232-.034a12.384,12.384,0,0,1,4.2.68,8.587,8.587,0,0,1,3.069,1.824,7.73,7.73,0,0,1,1.858,2.844,11.159,11.159,0,0,1-.279,8.124,8.689,8.689,0,0,1-2.334,2.974,8.887,8.887,0,0,1-3.218,1.653,13.133,13.133,0,0,1-3.552.5h-4.641q-.143,0-.143-.225Zm2.32,16.16a9.5,9.5,0,0,1,1.082.048h1.3a9.934,9.934,0,0,0,3.089-.463,6.723,6.723,0,0,0,2.45-1.4,6.3,6.3,0,0,0,1.606-2.347,8.8,8.8,0,0,0,.572-3.314,7.593,7.593,0,0,0-.558-3.035,6.022,6.022,0,0,0-1.572-2.157,6.682,6.682,0,0,0-2.348-1.3,9.77,9.77,0,0,0-2.953-.429h-1.4c-.449,0-.871,0-1.286.041Z" transform="translate(-155.579 -19.665)" fill="#fff"/>
      <path id="Path_9" data-name="Path 9" d="M23.354,34.843c-.054.422-.156.476-.524.476H1.362c-.313,0-.422-.156-.422-.476V1.25c0-.313.109-.47.422-.47H22.2c.422,0,.524.048.578.415l.578,5.7c.054.265,0,.476-.367.476H8.275v7.07H21.721c.265,0,.422.1.422.422v5.8c0,.32-.211.374-.422.374H8.275v7.689H23.83c.422,0,.476.157.422.476Z" transform="translate(-0.292 -0.249)" fill="#fff"/>
      <path id="Path_10" data-name="Path 10" d="M58.559,17.487,68.983,34.736a.354.354,0,0,1-.259.578H61.24a.878.878,0,0,1-.9-.476c-2.32-4.083-4.641-8.226-7.009-12.547h-.054c-2.109,4.219-4.43,8.485-6.648,12.6a.68.68,0,0,1-.735.422H38.772c-.374,0-.374-.32-.211-.531L48.686,18.018,38.772,1.3a.313.313,0,0,1,.259-.524h7.437c.367,0,.531.048.68.415,2.109,4.171,4.586,8.335,6.75,12.5h.054c2.041-4.219,4.375-8.274,6.539-12.5a.68.68,0,0,1,.742-.415h6.8c.367,0,.422.259.211.578Z" transform="translate(-12.281 -0.245)" fill="#fff"/>
      <path id="Path_11" data-name="Path 11" d="M88.43,1.2c0-.313.054-.422.32-.422C90.914.729,95.078.62,99.086.62c10.656,0,14.344,5.906,14.344,11.656,0,8.539-6.593,12.18-14.711,12.18H95.711v10.39c0,.265-.1.422-.422.422H88.818c-.265,0-.374-.157-.374-.422Zm7.281,16.773c.9.048,1.477.048,2.953.048,4.164,0,7.485-1.259,7.485-5.586,0-3.321-2.273-5.443-6.859-5.443-1.687,0-3.11.054-3.586.1Z" transform="translate(-28.251 -0.198)" fill="#fff"/>
      <path id="Path_12" data-name="Path 12" d="M155.017,34.843c-.048.422-.157.476-.524.476H133.032c-.32,0-.422-.156-.422-.476V1.25c0-.313.1-.47.422-.47H153.86c.422,0,.524.048.578.415l.578,5.7c.054.265,0,.476-.367.476H139.938v7.07h13.445c.265,0,.422.1.422.422v5.8c0,.32-.211.374-.422.374H139.938v7.689h15.555c.422,0,.476.157.422.476Z" transform="translate(-42.369 -0.249)" fill="#fff"/>
      <path id="Path_13" data-name="Path 13" d="M174.412,35.268c-.32,0-.422-.109-.422-.476V1.307c0-.265.054-.531.367-.531,4.763-.1,6.75-.157,11.023-.157,8.75,0,13.656,3.742,13.656,10.547a9.9,9.9,0,0,1-6.593,9.281c1.742,2.375,7.7,11.336,9.336,14.187.156.313.211.633-.156.633h-7.648c-.476,0-.633-.109-.735-.32-1.531-2.32-4.852-7.961-7.015-11.567-.367-.633-.633-.9-1.211-.9h-3.851V34.846a.388.388,0,0,1-.422.422Zm10.812-18.984c3.953,0,6.485-1.585,6.485-4.7C191.688,8.363,189.068,7,185.17,7c-1.742,0-3.218.054-4.008.1v9.179Z" transform="translate(-55.592 -0.198)" fill="#fff"/>
      <path id="Path_14" data-name="Path 14" d="M227.674,34.843c0,.32-.1.476-.469.476h-6.4c-.313,0-.422-.156-.422-.476V1.25c0-.422.156-.47.422-.47h6.437c.313,0,.469.1.469.47Z" transform="translate(-70.417 -0.249)" fill="#fff"/>
      <path id="Path_15" data-name="Path 15" d="M264.674,34.843c-.054.422-.156.476-.531.476H242.682c-.313,0-.422-.156-.422-.476V1.25c0-.313.109-.47.422-.47H263.51c.422,0,.531.048.585.415l.578,5.7c.054.265,0,.476-.367.476H249.568v7.07h13.473c.259,0,.422.1.422.422v5.8c0,.32-.211.374-.422.374H249.568v7.689H265.15c.422,0,.47.157.422.476Z" transform="translate(-77.409 -0.249)" fill="#fff"/>
      <path id="Path_16" data-name="Path 16" d="M284.116,35.317c-.313,0-.476-.054-.476-.476V1.193c0-.259.109-.415.374-.415h8.539c.422,0,.476.1.68.415,3.531,6.491,10.649,20.3,12.336,24.21h.088c-.054-1.531-.156-3.11-.156-8.281V1.248a.415.415,0,0,1,.469-.47h5.906c.374,0,.476.157.476.524V34.786c0,.422-.1.531-.578.531h-7.621c-.476,0-.578-.109-.742-.422-2.953-5.8-10.887-20.57-13.126-26.265h-.054c.211,3.062.265,5.171.265,10.125V34.841c0,.32-.109.476-.422.476Z" transform="translate(-90.632 -0.247)" fill="#fff"/>
      <path id="Path_17" data-name="Path 17" d="M360.035,33.906c0,.374-.1.633-.422.742a23.135,23.135,0,0,1-7.328.946c-10.207,0-18.195-6.063-18.195-17.61C334.09,7.281,341.473,0,353.142,0c3.321,0,5.484.265,6.852.9a.592.592,0,0,1,.374.633v5.75c0,.47-.265.47-.476.367a16.507,16.507,0,0,0-6.859-1.164c-7.077,0-11.4,4.4-11.4,11.207,0,8.226,6.015,11.336,11.567,11.336a19.624,19.624,0,0,0,6.43-.844c.265-.1.422-.048.422.265Z" transform="translate(-106.754 0)" fill="#fff"/>
      <path id="Path_18" data-name="Path 18" d="M402.687,34.843c-.048.422-.156.476-.524.476H380.7c-.32,0-.422-.156-.422-.476V1.25c0-.313.1-.47.422-.47H401.53c.422,0,.524.048.578.415l.578,5.7c.054.265,0,.476-.367.476H387.608v7.07h13.445c.265,0,.422.1.422.422v5.8c0,.32-.211.374-.422.374H387.608v7.689h15.555c.422,0,.476.157.422.476Z" transform="translate(-121.515 -0.249)" fill="#fff"/>
      <path id="Path_19" data-name="Path 19" d="M2.323,61.68h9.7c.374,0,.476.109.585.367,1.477,5.328,5.219,19.3,6.219,24.421h.054C19.94,81.93,24.328,67.532,25.9,62.1c.048-.265.157-.422.422-.422h9.526c.313,0,.422.054.422.367l1.313,33.7a.381.381,0,0,1-.422.47h-6.8c-.265,0-.422-.048-.422-.367-.163-10.887-.109-25.523,0-28.9h-.054c-1.164,5.219-5.8,21.672-7.859,28.844-.1.32-.265.422-.524.422H15.4c-.367,0-.47-.048-.578-.422C12.87,88.156,9.284,73.812,7.76,66.851H7.705c-.054,5.7-.265,17.93-.742,28.946,0,.374-.1.422-.422.422H.418c-.313,0-.47-.048-.422-.422L1.854,62C1.9,61.68,2.037,61.68,2.323,61.68Z" transform="translate(0.012 -19.711)" fill="#fff"/>
      <path id="Path_20" data-name="Path 20" d="M68.939,88.008l-2.531,7.8a.572.572,0,0,1-.578.422H59.705c-.374,0-.476-.211-.422-.524l10.554-30.4a9.526,9.526,0,0,0,.524-3.218.347.347,0,0,1,.32-.367h8.437c.259,0,.367.054.422.32L91.509,95.8c.1.259.054.469-.265.469H84.392a.538.538,0,0,1-.585-.367l-2.722-7.859Zm10.207-6.587c-1.055-3.484-3.164-9.866-4.164-13.609h-.054c-.844,3.531-2.722,9.336-4.083,13.609Z" transform="translate(-18.932 -19.727)" fill="#fff"/>
      <path id="Path_21" data-name="Path 21" d="M141.2,95.584c.211.32.048.633-.265.633h-7.7a1.177,1.177,0,0,1-1-.422L119.788,80.948v14.82c0,.313-.156.469-.524.469h-6.328c-.32,0-.476-.1-.476-.524V62.1c0-.313.1-.422.422-.422h6.43c.32,0,.476.109.476.476V76.92l12.445-14.874a.68.68,0,0,1,.68-.367h6.961c.524,0,.578.32.367.578L126.749,77.866a.5.5,0,0,0,0,.531Z" transform="translate(-35.93 -19.709)" fill="#fff"/>
      <path id="Path_22" data-name="Path 22" d="M181.054,95.749c-.054.422-.156.47-.524.47H159.069c-.32,0-.429-.157-.429-.47V62.156c0-.32.109-.476.429-.476H179.9c.422,0,.524.054.578.422l.578,5.7c.054.265,0,.476-.367.476H165.975v7.063h13.445c.265,0,.422.109.422.422v5.8c0,.313-.211.367-.422.367H165.975v7.7H181.53c.422,0,.476.157.422.47Z" transform="translate(-50.687 -19.711)" fill="#fff"/>
      <path id="Path_23" data-name="Path 23" d="M200.452,96.171c-.32,0-.422-.1-.422-.47V62.21c0-.259.048-.524.367-.524,4.763-.109,6.75-.157,11.023-.157,8.75,0,13.656,3.742,13.656,10.547a9.9,9.9,0,0,1-6.593,9.281c1.742,2.368,7.7,11.336,9.336,14.18.156.32.211.633-.157.633h-7.648c-.476,0-.633-.1-.742-.313-1.524-2.32-4.845-7.961-7.008-11.567-.374-.633-.633-.9-1.211-.9H207.2V95.729a.388.388,0,0,1-.422.422Zm10.812-18.984c3.953,0,6.485-1.579,6.485-4.688,0-3.218-2.64-4.593-6.539-4.593-1.742,0-3.218.054-4.008.109v9.172Z" transform="translate(-63.914 -19.663)" fill="#fff"/>
      <path id="Path_24" data-name="Path 24" d="M245.881,94.647a.878.878,0,0,1-.374-.844V87.5c0-.259.211-.422.422-.259a18.175,18.175,0,0,0,9.526,2.722c4.008,0,5.593-1.361,5.593-3.218,0-1.687-1.218-2.9-4.8-4.43L253.611,81.2c-6.485-2.722-8.281-6.008-8.281-10.125,0-5.7,4.328-10.207,12.711-10.207,3.321,0,6.328.422,8.226,1.361a.68.68,0,0,1,.313.68v5.906c0,.211-.157.476-.47.265a16.626,16.626,0,0,0-8.124-1.742c-4.083,0-5.484,1.361-5.484,3.11,0,1.633,1.109,2.722,5.062,4.328l1.953.789c7.015,2.9,8.961,6.219,8.961,10.492,0,6.382-5.165,10.39-13.289,10.39A20.112,20.112,0,0,1,245.881,94.647Z" transform="translate(-78.39 -19.452)" fill="#fff"/>
    </g>
  </g>
</svg>
