<svg id="Layer_1" data-name="Layer 1" xmlns="http://www.w3.org/2000/svg" width="104.67" height="107" viewBox="0 0 104.67 107">
  <defs>
    <style>
      .cls-1, .cls-2 {
        fill: none;
        stroke: #949494;
        stroke-linejoin: round;
        stroke-width: 1.5px;
      }

      .cls-1 {
        stroke-linecap: round;
      }
    </style>
  </defs>
  <title>additional_resources</title>
  <g>
    <path class="cls-1" d="M27.1,91.77a17.35,17.35,0,0,1,6.5-1c4.16,0,26.91,7.67,30.17,7.67A18.17,18.17,0,0,0,74,94.57c3.25-2.41,24.18-17,24.18-17s3.25-3.77,0-6.76-8.19-.39-9.36.52-15.47,8.71-15.47,8.71a20.34,20.34,0,0,1-8.06,2.08c-4,0-17.69-6.24-17.69-6.24"/>
    <path class="cls-1" d="M26.58,67.07,34.77,62a11.43,11.43,0,0,1,5.33-1.82c2.6,0,26.27,8.58,26.27,8.58S72.87,71,70.53,76s-6.34,6.34-10.12,5"/>
    <path class="cls-1" d="M70.68,72.31l8.56-4.85a10.29,10.29,0,0,1,11.31,2.42"/>
    <path class="cls-1" d="M66.37,68.76,71,66.7s5.22-2.62,8.21.76"/>
    <path class="cls-1" d="M60.61,66.7s5.94-4.43,11.24-.34"/>
    <path class="cls-1" d="M11,101.78h6c3.25,0,2.73-2.08,2.73-2.08V61.22h4.94s1.95.05,1.95,4.44V92.94s-.13,1.82-1.82,1.82h-5"/>
    <path class="cls-2" d="M81.08,30.46a17,17,0,1,0-10.31,8.27"/>
    <path class="cls-1" d="M77.19,28.23a12.56,12.56,0,1,0-6.65,5.85"/>
    <polygon class="cls-1" points="69.93 24.89 93.77 36.61 71.7 51.4 69.93 24.89"/>
    <rect class="cls-1" x="36.41" y="37.67" width="13.42" height="13.42" transform="translate(44.01 -17.5) rotate(45)"/>
  </g>
</svg>
